<svg xmlns="http://www.w3.org/2000/svg" xmlns:xlink="http://www.w3.org/1999/xlink" width="623.568" height="428.57" viewBox="0 0 623.568 428.57">
  <defs>
    <linearGradient id="linear-gradient" x1="0.501" y1="1" x2="0.501" gradientUnits="objectBoundingBox">
      <stop offset="0" stop-color="gray" stop-opacity="0.251"/>
      <stop offset="0.54" stop-color="gray" stop-opacity="0.122"/>
      <stop offset="1" stop-color="gray" stop-opacity="0.102"/>
    </linearGradient>
  </defs>
  <g id="Group_53" data-name="Group 53" transform="translate(-1172.342 -2401.622)">
    <path id="Path_302" data-name="Path 302" d="M402.35,103.106c-32.585-1.133-63.619-11.65-93.253-23.16S250.11,55.684,218.285,49.586c-20.436-3.922-43.832-4.476-60.316,6.485-15.859,10.573-20.985,28.774-23.739,45.675-2.074,12.723-3.293,26.105,2.386,38.012,3.947,8.267,10.946,15.215,15.789,23.16,16.851,27.55,4.939,61.524-13.317,88.425-8.559,12.617-18.5,24.67-25.113,38.093s-9.667,28.824-3.882,42.523c5.73,13.594,19.389,23.784,34.186,30.964,30.052,14.571,65.452,18.744,99.995,21.106,76.442,5.231,153.288,2.965,229.931.7,28.366-.841,56.852-1.692,84.755-6.077,15.5-2.437,31.492-6.3,42.74-15.608,14.284-11.847,17.823-31.91,8.252-46.763-16.051-24.917-60.417-31.11-71.649-57.849-6.172-14.717.166-31.115,9.143-44.764,19.253-29.287,51.52-54.974,53.217-88.45,1.168-22.989-14.344-46.012-38.33-56.893-25.138-11.4-60-9.969-78.542,8.906C464.686,96.626,431.124,104.1,402.35,103.106Z" transform="translate(1127.346 2361.319)" fill="#3480e3" opacity="0.1"/>
    <g id="Group_44" data-name="Group 44" transform="translate(1407.623 2435.604)" opacity="0.9">
      <rect id="Rectangle_65" data-name="Rectangle 65" width="5.039" height="41.527" rx="2.29" transform="translate(167.553 77.709)" fill="#3a3768"/>
      <rect id="Rectangle_66" data-name="Rectangle 66" width="2.826" height="13.672" rx="1.413" transform="translate(0.102 45.178)" fill="#3a3768"/>
      <rect id="Rectangle_67" data-name="Rectangle 67" width="3.185" height="23.795" rx="1.592" transform="translate(0 70.207)" fill="#3a3768"/>
      <rect id="Rectangle_68" data-name="Rectangle 68" width="3.031" height="24" rx="1.516" transform="translate(0.051 102.328)" fill="#3a3768"/>
      <rect id="Rectangle_69" data-name="Rectangle 69" width="168.566" height="342.585" rx="38.99" transform="translate(1.706)" fill="#3a3768"/>
      <rect id="Rectangle_70" data-name="Rectangle 70" width="23.539" height="4.777" rx="2.389" transform="translate(69.724 10.225)" fill="#e6e8ec"/>
      <ellipse id="Ellipse_48" data-name="Ellipse 48" cx="2.713" cy="2.713" rx="2.713" ry="2.713" transform="translate(96.823 9.907)" fill="#e6e8ec"/>
    </g>
    <ellipse id="Ellipse_49" data-name="Ellipse 49" cx="113.725" cy="11.59" rx="113.725" ry="11.59" transform="translate(1193.993 2774.481)" fill="#3480e3" opacity="0.1"/>
    <ellipse id="Ellipse_50" data-name="Ellipse 50" cx="53.277" cy="5.431" rx="53.277" ry="5.431" transform="translate(1507.312 2819.33)" fill="#3480e3" opacity="0.1"/>
    <ellipse id="Ellipse_51" data-name="Ellipse 51" cx="53.277" cy="5.431" rx="53.277" ry="5.431" transform="translate(1689.356 2791.964)" fill="#3480e3" opacity="0.1"/>
    <path id="Path_303" data-name="Path 303" d="M621.125,174.84H601.846v2.326a11.022,11.022,0,0,1-11.022,11.022H529.3a11.022,11.022,0,0,1-11.021-11.022V174.84H500.172a13.382,13.382,0,0,0-13.382,13.387V486.192a13.382,13.382,0,0,0,13.382,13.387H621.125a13.387,13.387,0,0,0,13.387-13.387V188.227A13.387,13.387,0,0,0,621.125,174.84Z" transform="translate(932.952 2269.682)" fill="#3480e3"/>
    <path id="Path_304" data-name="Path 304" d="M835.107,132.683s-47.885-2.889-42.238,30.665c0,0-1.137,5.932,4.254,8.622,0,0,.085-2.485,4.908-1.644a21.861,21.861,0,0,0,5.2.25,10.805,10.805,0,0,0,6.364-2.622h0s13.456-5.562,18.694-27.56c0,0,3.873-4.8,3.719-6.034l-8.081,3.452s2.758,5.829.569,10.675c0,0-.262-10.464-1.814-10.237-.318.045-4.2,2.019-4.2,2.019s4.754,10.151,1.137,17.533c0,0,1.359-12.512-2.65-16.8l-5.687,3.321s5.551,10.487,1.791,19.046c0,0,.961-13.126-2.986-18.239l-5.153,4.021s5.215,10.333,2.036,17.431c0,0-.421-15.276-3.156-16.43,0,0-4.51,3.981-5.2,5.607,0,0,3.571,7.507,1.359,11.465,0,0-1.359-10.18-2.474-10.237,0,0-4.493,6.745-4.959,11.374,0,0,.193-6.876,3.867-12.011,0,0-4.339.745-6.876,3.56,0,0,.7-4.766,7.962-5.187,0,0,3.714-5.118,4.709-5.425,0,0-7.251-.609-11.647,1.342,0,0,3.867-4.5,12.978-2.451l5.084-4.157s-9.543-1.3-13.592.137c0,0,4.663-3.981,14.969-1.081l5.539-3.31s-8.138-1.757-12.989-1.137c0,0,5.118-2.758,14.61.233l3.981-1.78s-5.966-1.172-7.712-1.359-1.837-.665-1.837-.665a20.673,20.673,0,0,1,11.278,1.285S835.249,133.212,835.107,132.683Z" transform="translate(823.302 2289.111)" fill="#3480e3"/>
    <path id="Path_305" data-name="Path 305" d="M766.5,106.469s-21.611-1.3-19.086,13.859a3.7,3.7,0,0,0,1.922,3.9s.04-1.137,2.218-.745a9.957,9.957,0,0,0,2.349.114,4.9,4.9,0,0,0,2.878-1.183h0s6.08-2.514,8.445-12.455c0,0,1.752-2.167,1.706-2.724l-3.651,1.558s1.246,2.633.262,4.823c0,0-.114-4.726-.819-4.618-.142,0-1.894.916-1.894.916s2.144,4.584.523,7.922c0,0,.614-5.653-1.194-7.592l-2.571,1.5s2.508,4.737.807,8.6c0,0,.438-5.932-1.348-8.241l-2.332,1.82s.122.241.411.942c.464,1.1,1.622,4.455.51,6.934,0,0-.188-6.9-1.422-7.427a14.05,14.05,0,0,0-2.349,2.536s1.609,3.412.609,5.181c0,0-.614-4.6-1.137-4.624,0,0-2.03,3.048-2.241,5.118a11.068,11.068,0,0,1,1.746-5.426,6.09,6.09,0,0,0-3.105,1.609s.313-2.155,3.606-2.343a14.2,14.2,0,0,1,2.127-2.457,13.335,13.335,0,0,0-5.26.609s1.746-2.03,5.863-1.137l2.275-1.877s-4.311-.569-6.142.063c0,0,2.11-1.8,6.762-.489l2.5-1.5a22.734,22.734,0,0,0-5.863-.506s2.309-1.245,6.6.1l1.792-.8s-2.69-.529-3.481-.614-.83-.3-.83-.3a9.3,9.3,0,0,1,5.056.569S766.563,106.708,766.5,106.469Z" transform="translate(837.636 2295.182)" fill="#3480e3"/>
    <ellipse id="Ellipse_52" data-name="Ellipse 52" cx="22.868" cy="3.867" rx="22.868" ry="3.867" transform="translate(1172.342 2753.871)" fill="#3480e3"/>
    <path id="Path_306" data-name="Path 306" d="M92.55,706.468a6.614,6.614,0,0,0,2.184-3.287,2.947,2.947,0,0,0-1.524-3.35c-1.4-.54-2.895.432-4.026,1.41s-2.434,2.1-3.918,1.888a5.955,5.955,0,0,0,1.826-5.579,2.275,2.275,0,0,0-.512-1.137c-.773-.83-2.184-.472-3.117.182-2.957,2.081-3.782,6.1-3.793,9.714a17.92,17.92,0,0,1-.057-3.981,4.1,4.1,0,0,0-1.5-3.537,4.55,4.55,0,0,0-2.275-.54,4.757,4.757,0,0,0-3.719,1.058c-1.137,1.206-.836,3.236.148,4.55a14.868,14.868,0,0,0,3.844,3.082,8.485,8.485,0,0,1,2.753,2.622,2.51,2.51,0,0,1,.2.466H87.4a23.184,23.184,0,0,0,5.153-3.56Z" transform="translate(1112.112 2044.941)" fill="#3480e3"/>
    <path id="Path_307" data-name="Path 307" d="M872.074,630.54s4.919,6.438-2.275,16.151-13.12,17.914-10.72,23.971c0,0,10.851-18.039,19.683-18.3S881.787,641.391,872.074,630.54Z" transform="translate(772.621 2073.143)" fill="#3480e3"/>
    <path id="Path_308" data-name="Path 308" d="M872.287,630.54a8.1,8.1,0,0,1,1.007,2.019c8.616,10.123,13.205,19.575,4.919,19.808-7.712.222-16.97,14.019-19.183,17.5a6.514,6.514,0,0,0,.262.8s10.851-18.039,19.683-18.3S882,641.391,872.287,630.54Z" transform="translate(772.408 2073.143)" opacity="0.1"/>
    <path id="Path_309" data-name="Path 309" d="M897.557,643.9c0,2.275-.256,4.1-.569,4.1s-.569-1.837-.569-4.1.319-1.194.631-1.194S897.557,641.625,897.557,643.9Z" transform="translate(756.283 2068.007)" fill="#ffd037"/>
    <path id="Path_310" data-name="Path 310" d="M900.995,648.541c-1.99,1.081-3.719,1.74-3.873,1.462s1.342-1.376,3.333-2.462,1.2-.29,1.353,0S902.985,647.455,900.995,648.541Z" transform="translate(755.985 2066.05)" fill="#ffd037"/>
    <path id="Path_311" data-name="Path 311" d="M828.269,630.54s-4.919,6.438,2.275,16.151,13.12,17.914,10.726,23.971c0,0-10.851-18.039-19.683-18.3S818.555,641.391,828.269,630.54Z" transform="translate(790.436 2073.143)" fill="#3480e3"/>
    <path id="Path_312" data-name="Path 312" d="M828.266,630.54a7.877,7.877,0,0,0-1.007,2.019c-8.616,10.123-13.205,19.575-4.925,19.808,7.717.222,16.97,14.019,19.188,17.5a7.654,7.654,0,0,1-.262.8s-10.851-18.039-19.683-18.3S818.552,641.391,828.266,630.54Z" transform="translate(790.44 2073.143)" opacity="0.1"/>
    <path id="Path_313" data-name="Path 313" d="M820.55,643.9c0,2.275.256,4.1.569,4.1s.569-1.837.569-4.1-.318-1.194-.631-1.194S820.55,641.625,820.55,643.9Z" transform="translate(789.005 2068.007)" fill="#ffd037"/>
    <path id="Path_314" data-name="Path 314" d="M814.089,648.541c1.985,1.081,3.719,1.74,3.867,1.462s-1.336-1.376-3.327-2.462-1.206-.29-1.354,0S812.121,647.455,814.089,648.541Z" transform="translate(792.309 2066.05)" fill="#ffd037"/>
    <path id="Path_315" data-name="Path 315" d="M823.31,693.972s13.757-.427,17.9-3.378,21.162-6.478,22.18-1.74,20.673,23.55,5.118,23.675-36.09-2.423-40.225-4.942S823.31,693.972,823.31,693.972Z" transform="translate(787.814 2048.992)" fill="#a8a8a8"/>
    <path id="Path_316" data-name="Path 316" d="M868.824,716.5c-15.531.125-36.09-2.423-40.225-4.942-3.156-1.917-4.407-8.8-4.828-11.983h-.461s.87,11.1,5.01,13.615,24.693,5.067,40.225,4.942c4.481-.04,6.034-1.632,5.949-3.981C873.868,715.583,872.162,716.476,868.824,716.5Z" transform="translate(787.814 2043.366)" opacity="0.2"/>
    <rect id="Rectangle_71" data-name="Rectangle 71" width="44.376" height="44.376" transform="translate(1509.558 2643.695)" fill="#3a3768" opacity="0.3"/>
    <rect id="Rectangle_72" data-name="Rectangle 72" width="44.376" height="44.376" transform="translate(1439.368 2590.709)" fill="#3a3768" opacity="0.3"/>
    <rect id="Rectangle_73" data-name="Rectangle 73" width="44.376" height="44.376" transform="translate(1443.633 2706.862)" fill="#3a3768" opacity="0.3"/>
    <rect id="Rectangle_74" data-name="Rectangle 74" width="44.376" height="44.376" transform="translate(1444.732 2480.75)" fill="#fff"/>
    <path id="Path_317" data-name="Path 317" d="M564.355,265.79l-1.575,1.57a5.556,5.556,0,0,1,0,7.865l1.575,1.581a7.791,7.791,0,0,0,0-11.016Z" transform="translate(911.178 2229.456)" fill="#3480e3"/>
    <path id="Path_318" data-name="Path 318" d="M550.574,259.477l-1.553,1.553a9.884,9.884,0,0,1,0,13.967l1.553,1.553a12.068,12.068,0,0,0,0-17.061Zm-7.393,5.812V258.18h-2.19l-6.552,5.46H525.7l-2.184,1.092v7.649l2.184,1.092,5.482,8.741h3.276l-2.047-8.741h2.047l6.552,4.373H543.2v-7.109a2.792,2.792,0,0,0,0-5.448Z" transform="translate(928.111 2232.738)" fill="#3480e3"/>
    <rect id="Rectangle_75" data-name="Rectangle 75" width="44.376" height="44.376" transform="matrix(0.742, -0.671, 0.671, 0.742, 1501.688, 2661.192)" fill="#fff"/>
    <path id="Path_319" data-name="Path 319" d="M673.34,546.568l3.219-2.923,17.63,19.433-3.242,2.934Zm7.6,18.2,3.242-2.929,5.118,5.687-3.242,2.929Zm6.79-12.034,3.242-2.934,8.059,8.912-3.236,2.929Zm.461-9.259,3.242-2.935,12.46,13.768-3.242,2.935Z" transform="translate(846.836 2110.087)" fill="#3480e3"/>
    <rect id="Rectangle_76" data-name="Rectangle 76" width="44.376" height="44.376" transform="translate(1506.295 2536.226)" fill="#fff"/>
    <path id="Path_320" data-name="Path 320" d="M670.851,363.569l-5.954,9.1a3.241,3.241,0,0,1,.739,2.07,3.281,3.281,0,0,1-6.557,0,3.608,3.608,0,0,1,.057-.609l-3.935-2.275a3.293,3.293,0,0,1-3.884.489l-4.186,3.918v3.907a2.923,2.923,0,0,0,2.918,2.918h24.762a2.929,2.929,0,0,0,2.918-2.918V365.656L673.746,363a3.242,3.242,0,0,1-2.008.694,3.337,3.337,0,0,1-.864-.119Z" transform="translate(866.058 2189.53)" fill="#3480e3"/>
    <path id="Path_321" data-name="Path 321" d="M652.931,359.9a3.276,3.276,0,0,1,3.281,3.276,2.124,2.124,0,0,1-.028.427l4.106,2.275a3.225,3.225,0,0,1,2.076-.739,3.149,3.149,0,0,1,.705.08l5.971-9.247a3.276,3.276,0,1,1,5.949-1.9,3.406,3.406,0,0,1-.091.773l2.844,1.882v-5.471a2.923,2.923,0,0,0-2.918-2.912H650.047a2.918,2.918,0,0,0-2.917,2.912v15.662l2.73-2.616a3.31,3.31,0,0,1-.2-1.137A3.276,3.276,0,0,1,652.931,359.9Z" transform="translate(866.058 2195.853)" fill="#3480e3"/>
    <rect id="Rectangle_77" data-name="Rectangle 77" width="44.376" height="44.376" transform="translate(1439.368 2590.709)" fill="#fff"/>
    <path id="Path_322" data-name="Path 322" d="M578,435.438l-27.3,14.786a.569.569,0,0,0,.04,1.018L555.4,453a1.137,1.137,0,0,1,.614.569l3.617,7.45c.068.33.677.421.682.085l-.569-6.159a2.189,2.189,0,0,1,.5-1.245L574.4,439.834a.353.353,0,0,1,.313-.091.324.324,0,0,1,.176.518l-12.2,14.912a2.723,2.723,0,0,0-.478,1.228l-.728,5.318c.057.466.421.643.717.227l2.627-3.088a.569.569,0,0,1,.773-.125l6.773,4.936a.569.569,0,0,0,.859-.336l5.556-27.3a.569.569,0,0,0-.8-.614Z" transform="translate(896.943 2163.324)" fill="#3480e3"/>
    <path id="Path_323" data-name="Path 323" d="M1022.752,774.995a17.3,17.3,0,0,0,7.734-.262c.381-.12.819-.381.768-.773a.908.908,0,0,0-.176-.375,24.133,24.133,0,0,1-2.349-4.453.364.364,0,0,0-.142-.2.347.347,0,0,0-.25,0c-1.137.3-2.127,1.035-3.264,1.348a4.661,4.661,0,0,1-1.774.136c-.512-.057-1.217-.483-1.678-.432C1021.9,771.674,1022.553,773.272,1022.752,774.995Z" transform="translate(702.285 2013.465)" fill="#3480e3"/>
    <path id="Path_324" data-name="Path 324" d="M1107.392,765.3a13.215,13.215,0,0,0,4.476-4.2.69.69,0,0,0,.119-.358.74.74,0,0,0-.142-.352,14.571,14.571,0,0,0-3.634-3.924,10.74,10.74,0,0,0-2.03,1.871c-.427.449-1.609,1.189-1.621,1.86,0,.4.449.842.66,1.137.284.421.569.853.813,1.285A21.346,21.346,0,0,1,1107.392,765.3Z" transform="translate(666.514 2018.835)" fill="#3480e3"/>
    <path id="Path_325" data-name="Path 325" d="M1021.417,782.289a1.706,1.706,0,0,1-.307,1.137,1.519,1.519,0,0,1-.654.381c-3.617,1.291-7.78-.324-11.374.955-.745.262-1.444.637-2.189.887a11.854,11.854,0,0,1-2.713.483c-1.28.125-2.559.2-3.839.233a9.285,9.285,0,0,1-2.889-.25,3.5,3.5,0,0,1-2.218-1.757,1.706,1.706,0,0,1-.108-1.251,1.413,1.413,0,0,1,.233-.4,3.461,3.461,0,0,1,.853-.688l1.331-.859a8.891,8.891,0,0,1,2.013-1.069c.523-.171,1.086-.245,1.615-.4a11.158,11.158,0,0,0,4.618-3.452l1.808-1.928a1.77,1.77,0,0,1,.626-.5,1.705,1.705,0,0,1,.773-.08,10.446,10.446,0,0,1,4.931,1.661,7.112,7.112,0,0,0,1.217.717,4.345,4.345,0,0,0,3.412-.427c.466-.245.364-.4.569-.836s.671-.722,1.081-.319a1.191,1.191,0,0,1,.256.489,13.57,13.57,0,0,1,.245,4.021,1.786,1.786,0,0,0,.079.626,3.818,3.818,0,0,0,.353.569.876.876,0,0,1,.074.148A3.945,3.945,0,0,1,1021.417,782.289Z" transform="translate(713.743 2011.393)" fill="#514e7f"/>
    <path id="Path_326" data-name="Path 326" d="M1021.417,787.345a1.706,1.706,0,0,1-.307,1.137,1.52,1.52,0,0,1-.654.381c-3.617,1.291-7.78-.324-11.374.955-.745.262-1.444.637-2.189.887a11.86,11.86,0,0,1-2.713.483c-1.28.125-2.559.2-3.839.233a9.285,9.285,0,0,1-2.889-.25,3.5,3.5,0,0,1-2.218-1.757,1.706,1.706,0,0,1-.108-1.251,1.411,1.411,0,0,1,.233-.4c.216.444.37,1.024.5,1.234a2.525,2.525,0,0,0,1.706,1.223,4.328,4.328,0,0,0,1.541-.2c3.276-.813,6.756-.825,9.9-2.053a23.642,23.642,0,0,1,3.242-1.246,25.766,25.766,0,0,1,3.5-.284c1.848-.148,3.634-.705,5.46-1a3.949,3.949,0,0,1,.21,1.905Z" transform="translate(713.743 2006.336)" fill="#464353"/>
    <path id="Path_327" data-name="Path 327" d="M1108.559,766.84a6.562,6.562,0,0,1-2,3.554,22.789,22.789,0,0,0-2.787,3.054c-.944,1.433-1.359,3.2-2.576,4.413a6.976,6.976,0,0,1-1.547,1.137,10.686,10.686,0,0,1-2.008.921,15.367,15.367,0,0,1-5.687.313,5.057,5.057,0,0,1-1.8-.353,5.217,5.217,0,0,1-.762-.461,3.618,3.618,0,0,1-1.137-1.177,1.184,1.184,0,0,1-.108-.847,1.933,1.933,0,0,1,.569-.83,12.85,12.85,0,0,1,1.37-1.234,8.134,8.134,0,0,0,1.786-1.57,5.122,5.122,0,0,0,.688-1.57,14.071,14.071,0,0,0,.5-2.986,9.4,9.4,0,0,1,.21-2c.29-1.024,1.052-1.951.961-3.014a.772.772,0,0,1,.04-.455.71.71,0,0,1,.358-.222,6.483,6.483,0,0,1,1.865-.427,2.15,2.15,0,0,1,1.706.677c.267.318.438.762.83.9a1.376,1.376,0,0,0,.569,0,4.838,4.838,0,0,0,2.707-.836,3.413,3.413,0,0,0,1.137-2.485c0-.353-.159-.722.381-.8.415-.057.739.375.95.66a9.282,9.282,0,0,1,1.826,3.327.921.921,0,0,1,.347-.068,1.484,1.484,0,0,1,1.24.637A2.455,2.455,0,0,1,1108.559,766.84Z" transform="translate(673.605 2017.07)" fill="#514e7f"/>
    <path id="Path_328" data-name="Path 328" d="M1108.667,769.842a6.562,6.562,0,0,1-2,3.554,22.8,22.8,0,0,0-2.787,3.054c-.944,1.433-1.359,3.2-2.576,4.413a6.973,6.973,0,0,1-1.547,1.137,10.69,10.69,0,0,1-2.008.921,15.366,15.366,0,0,1-5.687.313,5.055,5.055,0,0,1-1.8-.353,5.218,5.218,0,0,1-.762-.461,3.618,3.618,0,0,1-1.137-1.177,2.77,2.77,0,0,1,1.172-.279c.847.046,1.462.842,2.275,1.086,1.137.347,2.275-.466,3.464-.745.762-.176,1.57-.125,2.315-.37a5.718,5.718,0,0,0,1.706-1.035,8.668,8.668,0,0,0,1.825-1.763A11.259,11.259,0,0,0,1102.2,776a30.536,30.536,0,0,1,2.167-4.146,2.741,2.741,0,0,1,.444-.569c.176-.165.4-.284.569-.432a4.524,4.524,0,0,0,1.376-2.508,4.2,4.2,0,0,1,.307-.836,1.484,1.484,0,0,1,1.24.637A2.457,2.457,0,0,1,1108.667,769.842Z" transform="translate(673.496 2014.069)" fill="#464353"/>
    <path id="Path_329" data-name="Path 329" d="M979.243,550.677a8.256,8.256,0,0,1,2.32,2.713c.569,1.069,3.691,9.372,3.509,10.561,1.024-1.035,5.084-1.206,6.1-2.235.432-.432,2.77-2.593,3.117-3.094s2.952-1.575,3.236-2.087c1.063-1.905-7.541-9.1-6.444-11.01a.466.466,0,0,0,.091-.3.455.455,0,0,0-.142-.227,13.686,13.686,0,0,0-2.491-1.706,3.981,3.981,0,0,1-1.9-2.275,8.175,8.175,0,0,0-2.2,1.49q-2.36,2.019-4.652,4.14c-.6.569-1.752,1.291-2.03,2.081S978.668,550.21,979.243,550.677Z" transform="translate(721.22 2111.752)" fill="#a1616a"/>
    <path id="Path_330" data-name="Path 330" d="M996.661,552.61a24.934,24.934,0,0,0-3.685,3.014,7.374,7.374,0,0,0-2.349,3.759c-.108.569-.091,1.172-.182,1.757-.381,2.548-2.593,4.419-3.566,6.825a11.669,11.669,0,0,0-.625,2.275,26.818,26.818,0,0,0-.444,4.47c0,1.456,1.4,2.457,1.922,3.816a23.139,23.139,0,0,1,.927,4.135,50.374,50.374,0,0,0,2.326,7.678c1.922,5.306,8.15,19.979,10.072,25.291,5.886-1.479,21.56-4.874,26.769-7.962,1.74-1.035-12.057-12.728-10.2-13.535a.939.939,0,0,0,.518-.393.9.9,0,0,0,0-.569c-1.854-8.127-7.672-14.786-10.305-22.748-.916-2.747-2.559-5.09-3.81-7.706-1.137-2.366-1.735-4.976-3.082-7.223a4.83,4.83,0,0,0-.984-1.234,6.027,6.027,0,0,0-1.092-.654C998.128,553.207,997.412,552.985,996.661,552.61Z" transform="translate(717.73 2106.753)" fill="#514e7f"/>
    <ellipse id="Ellipse_53" data-name="Ellipse 53" cx="9.213" cy="9.213" rx="9.213" ry="9.213" transform="translate(1691.562 2643.075)" fill="#a1616a"/>
    <path id="Path_331" data-name="Path 331" d="M997.43,547.161a3.088,3.088,0,0,1,3.463-.495,1.706,1.706,0,0,1,1.029,1.661l4.55.068a9.518,9.518,0,0,1,2.167.2,3.15,3.15,0,0,1,1.808,1.137c.057.074.12.159.211.176a.365.365,0,0,0,.21-.074,4.01,4.01,0,0,1,2.275-.409,12.3,12.3,0,0,1,6.688,2.94,2.165,2.165,0,0,1,.8.972c.159.518,0,1.183.375,1.536,0,4.294,1.473,8.292,2.457,12.472a5.527,5.527,0,0,0,1.382,1.985,7.962,7.962,0,0,1,1.479,2.207c.83,2.167-.319,4.709.495,6.887a11.1,11.1,0,0,0,1.57,2.474,6.375,6.375,0,0,1,1.336,3.2c.034.523-.034,1.046,0,1.575a9.6,9.6,0,0,0,.375,2.07c.33,1.257.682,2.514,1.047,3.765.569,2.025,1.365,4.214,3.179,5.295-4.385.745-9,1.467-13.183-.051a6.825,6.825,0,0,1-1.644-.825c-1.507-1.075-2.235-2.918-2.883-4.652a21.861,21.861,0,0,1-1.615-6.005,6.873,6.873,0,0,0-.273-1.962,5.485,5.485,0,0,0-2.588-2.44,12.448,12.448,0,0,1-3.111-2.423,4.834,4.834,0,0,1-1.263-3.64c.08-.643.33-1.263.358-1.911a1.53,1.53,0,0,0-.887-1.575c-3.19-.967-4.715-4.743-5.425-8a25.527,25.527,0,0,1-.409-5.118l-.04-3.293a4.367,4.367,0,0,1-1.433-3.151,3.536,3.536,0,0,0,0-1.041,2.918,2.918,0,0,0-.728-1.137A9.612,9.612,0,0,1,997.43,547.161Z" transform="translate(712.718 2109.455)" fill="#464353"/>
    <path id="Path_332" data-name="Path 332" d="M979.684,564.217a24.352,24.352,0,0,1-.1,3.094c-.091.387-.245.756-.358,1.137a6.712,6.712,0,0,0,.427,4.334,24.089,24.089,0,0,0,2.212,3.839,5.843,5.843,0,0,1,.711,1.325,6.867,6.867,0,0,1,.273,1.518,46.243,46.243,0,0,0,1.086,6.108,12,12,0,0,0,2.15,4.908,1.491,1.491,0,0,0,.887.6,1.6,1.6,0,0,0,.756-.159l2.354-.893a1.642,1.642,0,0,0,.569-.3,1.428,1.428,0,0,0,.33-.921,13.542,13.542,0,0,0-1.035-5.579c-1.911-5.425-4.447-10.652-5.687-16.265-.347-1.57-.529-3.981-1.672-5.2-.472-.512-.313-.3-.876,0a7.128,7.128,0,0,0-.825.438A2.7,2.7,0,0,0,979.684,564.217Z" transform="translate(720.648 2102.937)" fill="#464353"/>
    <path id="Path_333" data-name="Path 333" d="M1059.24,625.68" transform="translate(686.06 2075.239)" fill="#464353"/>
    <path id="Path_334" data-name="Path 334" d="M992.219,572.3q.939,4.965,1.917,9.935l9.145-2.4a6.406,6.406,0,0,0-.791-2.735c-.836-2.093-.853-4.419-1.53-6.569-.512-1.638-1.4-3.145-1.877-4.794-.279-.955-.415-1.956-.688-2.917a22.288,22.288,0,0,0-1.075-2.781,17.717,17.717,0,0,0-2-3.7,5.831,5.831,0,0,0-3.082,2,4.242,4.242,0,0,0-.569,1.968c-.159,2.059.569,4.123.336,6.159A18.2,18.2,0,0,0,992.219,572.3Z" transform="translate(715.211 2105.145)" fill="#3480e3"/>
    <path id="Path_335" data-name="Path 335" d="M1008.516,647.055c.512,1.956-.233,3.981-.836,5.926a46.013,46.013,0,0,0-1.865,8.923,7.392,7.392,0,0,1-.461,2.275,21.248,21.248,0,0,1-1.109,1.82,9.119,9.119,0,0,0-.7,5.477c.131,1.228.33,2.451.569,3.662a9.23,9.23,0,0,1,.239,4.459c.722-.159,1.217.773,1.189,1.518s-.29,1.541.063,2.2c.9.324.91,1.558.882,2.508a21.145,21.145,0,0,0,.62,4.914q2.036,9.776,4.322,19.5c3.293,1.024,7.137,2.087,10.276.671a2.019,2.019,0,0,0,1.3-1.308,2.353,2.353,0,0,0-.125-1.007l-1.49-5.414a9.968,9.968,0,0,1-.534-3.981c.148-1.007.569-2.087.091-2.969a8.578,8.578,0,0,0-.626-.83c-.785-1.137-.375-2.667-.307-4.055a3.171,3.171,0,0,0-.068-.927,4.856,4.856,0,0,0-.438-1.018,15.544,15.544,0,0,1-1.706-7.734,1.9,1.9,0,0,0-.136-1.012,2.325,2.325,0,0,1-.25-.409,1.1,1.1,0,0,1,.08-.745,6.469,6.469,0,0,1-1.2-1.137,1.706,1.706,0,0,0,.284-2.628.876.876,0,0,0,.421-1.507c-.193-.136-.444-.193-.569-.387-.21-.284-.04-.688.131-1l.91-1.644c.677-1.217.83-2.724,1.558-3.913a29.368,29.368,0,0,0,2.4-5.477l2.593-7.223,1.763,1.53a5.517,5.517,0,0,1,1.45,1.655,6.983,6.983,0,0,1,.466,1.979c.648,3.924,3.122,7.325,4.038,11.2a7.545,7.545,0,0,0,.83,2.5,5.428,5.428,0,0,1,.478.717,3.779,3.779,0,0,1,.2,1.189,5.539,5.539,0,0,0,2.337,3.981c.864.569,1.962,1.007,2.417,1.951a3.857,3.857,0,0,0,.4.83c.421.506,1.331.569,1.513,1.2.1.358-.091.779.114,1.092a.994.994,0,0,0,.427.318L1043,686c2.844,1.416,4.277,4.663,6.375,7.046a14.646,14.646,0,0,1,1.905,2.525c.9,1.615,1.325,3.645,2.844,4.686a4.421,4.421,0,0,1,1.1.819c.483.631.307,1.518.347,2.315s.654,1.74,1.41,1.5a5.49,5.49,0,0,0,0,2.94,14.82,14.82,0,0,0,8.986-3.64,3.545,3.545,0,0,0,1.462-2.451.947.947,0,0,0-.108-.489,1.329,1.329,0,0,0-.569-.432c-2.371-1.285-3.088-4.265-4.277-6.688a55.991,55.991,0,0,0-3.913-5.96c-2.844-4.265-4.743-9.423-9.014-12.244a6.1,6.1,0,0,1-2.5-2.2,17.548,17.548,0,0,1-.5-1.82,1.53,1.53,0,0,0-1.336-1.137,8.118,8.118,0,0,0,.307-2.844,3.54,3.54,0,0,0-.142-1.223,5.775,5.775,0,0,0-.625-1.206,11.685,11.685,0,0,1-1.609-6.256,10.077,10.077,0,0,0-.108-3.361c-.171-.569-.466-1.041-.677-1.57a9.794,9.794,0,0,1-.489-2.929l-.233-3.748a17.929,17.929,0,0,0-.483-3.7c-.79-2.906-1.547-15.082-4.225-16.453s-7.251,8-10.237,8.184a13.647,13.647,0,0,0-3.913.751,18.964,18.964,0,0,0-5.306,3.52l-5.528,4.641a20.149,20.149,0,0,1-3.429,2.474Z" transform="translate(710.129 2074.519)" fill="#464353"/>
    <path id="Path_336" data-name="Path 336" d="M963.934,520.2a6.949,6.949,0,0,1,5.363-2.616,12.511,12.511,0,0,1,5.926,1.49,7.641,7.641,0,0,0,1.706.711c.978.2,2.059-.068,2.94.4,1.172.62,1.393,2.2,1.291,3.52s-.347,2.764.353,3.9a10.783,10.783,0,0,1,.677,1.012,3.378,3.378,0,0,1-.063,2.167,17.4,17.4,0,0,1-1.138-1.427,1.324,1.324,0,0,0-1.609-.421c-.5.336-.5.956-.523,1.507s-.171,1.217-.694,1.4a1.137,1.137,0,0,1-1.137-.455c-.893-1.092-.535-2.844-1.416-3.935-.506-.626-1.342-.927-1.809-1.581-.364-.512-.455-1.177-.773-1.706s-1.063-.961-1.564-.569a2.128,2.128,0,0,0-.415.569,2.394,2.394,0,0,1-2.844.853,4.991,4.991,0,0,0-1.234-.529,1.518,1.518,0,0,0-1.4.762,3.026,3.026,0,0,0-.37,1.627,3.782,3.782,0,0,1-.307,2.235,2.308,2.308,0,0,1-.66.569,1.952,1.952,0,0,1-2.161.222,1.627,1.627,0,0,1-.484-1.513,12.451,12.451,0,0,1,.461-1.6c.341-1.206-.1-2.565.273-3.7A11.653,11.653,0,0,1,963.934,520.2Z" transform="translate(728.192 2121.861)" fill="#464353"/>
    <path id="Path_337" data-name="Path 337" d="M974.4,557.936a1.422,1.422,0,0,0,.085.847,1.377,1.377,0,0,0,.461.444,9.542,9.542,0,0,0,4.345,1.4,1.308,1.308,0,0,1,.569.154,1.075,1.075,0,0,1,.256,1.211,3.225,3.225,0,0,0-.273,1.285c.114.813,1.075,1.183,1.894,1.285a4.391,4.391,0,0,0,3.293-.637,5.079,5.079,0,0,0,1.359-2.042c2.235-5.118,3.02-10.805,5.283-15.924a3.237,3.237,0,0,0,.341-1.063,1.058,1.058,0,0,0-.421-.984c-.421-.262-1.075-.114-1.359-.518-.142-.21-.125-.489-.25-.705-.262-.466-.944-.409-1.416-.66-.364-.2-.62-.569-1.024-.677a1.308,1.308,0,0,0-1.069.461,13.744,13.744,0,0,0-2.764,4.658,55.319,55.319,0,0,1-3.981,7.342,4.243,4.243,0,0,0-1.24-2.428c-.694-.142-1.592,1.081-1.968,1.541a9.759,9.759,0,0,0-2.121,5Z" transform="translate(722.664 2111.606)" fill="#3480e3"/>
    <rect id="Rectangle_78" data-name="Rectangle 78" width="44.376" height="44.376" transform="matrix(0.914, -0.407, 0.407, 0.914, 1694.607, 2687.766)" fill="#fff"/>
    <path id="Path_338" data-name="Path 338" d="M1011.188,605.094V599.27H996.64v26.217h28.407V605.094Zm-8.73,17.476h-2.906v-2.912h2.906Zm0-5.824h-2.906v-2.912h2.906Zm0-5.824h-2.906v-2.917h2.906Zm0-5.829h-2.906v-2.918h2.906Zm5.818,17.476h-2.9v-2.912h2.906Zm0-5.824h-2.9v-2.912h2.906Zm0-5.824h-2.9v-2.917h2.906Zm0-5.829h-2.9v-2.918h2.906Zm13.865,17.476h-10.953v-2.912h2.906v-2.912h-2.906v-2.912h2.906v-2.917h-2.906v-2.912h10.953Zm-2.548-11.647h-2.906v2.917h2.906Zm0,5.824h-2.906v2.917h2.906Z" transform="matrix(0.914, -0.407, 0.407, 0.914, 551.372, 2550.719)" fill="#3480e3"/>
    <path id="Path_339" data-name="Path 339" d="M1057.67,624.59a17.916,17.916,0,0,0-2.1,2.207,4.4,4.4,0,0,0-.967,2.844,1.462,1.462,0,0,0,.273.83.711.711,0,0,0,.79.245,1.138,1.138,0,0,0,.387-.347,18.14,18.14,0,0,1,1.308-1.422c.171-.165.387-.341.614-.279a.649.649,0,0,1,.267.176,1.809,1.809,0,0,1,.569.859,2.036,2.036,0,0,1-.6,1.655,4.287,4.287,0,0,0-1.018,1.507.642.642,0,0,0,0,.483.789.789,0,0,0,.3.262,4.391,4.391,0,0,0,3.68.239c.791-.313,1.473-.859,2.275-1.137a5.465,5.465,0,0,0,1.007-.375,2.07,2.07,0,0,0,.893-1.331,5.691,5.691,0,0,0,.063-1.644,18.767,18.767,0,0,0-1.371-6.2.741.741,0,0,0-.222-.33.78.78,0,0,0-.375-.108c-1-.1-2.633-.614-3.594-.245a2.457,2.457,0,0,0-.847.756C1058.774,623.435,1057.67,624.328,1057.67,624.59Z" transform="translate(688.062 2076.676)" fill="#a1616a"/>
    <path id="Path_340" data-name="Path 340" d="M1048.806,597.118c0-.955-1.183-3.247.688-3.412,0-1.012-1.439-1.649-1.177-2.718.091-.364.381-.654.427-1.018.119-1.041-1.757-1.6-1.45-2.6.114-.381.529-.614.62-1,.21-.9-1.4-1.3-1.427-2.224,0-.313.171-.608.159-.916,0-.392-.341-.688-.529-1.024-.483-.87-.25-2.218-1.137-2.662.569.045.79-.825.54-1.359s-.739-1-.739-1.587a2.517,2.517,0,0,0,0-.654c-.165-.569-1.1-.609-1.251-1.177a6.133,6.133,0,0,1,0-.643c-.057-.444-.512-.717-.938-.847a3.729,3.729,0,0,1-1.251-.444c-.273-.21-.569-.569-.881-.37-.108.063-.165.188-.25.284-.347.4-1.012.227-1.456-.074a6.022,6.022,0,0,1-2.229-4.015c-.284-1.547-.267-3.145-.609-4.68a10.73,10.73,0,0,0-.415-1.4,7.235,7.235,0,0,1-.66-1.4c-.068-.893,1.786-.284,2.491-.193a11.061,11.061,0,0,1,2.025.381,21.409,21.409,0,0,1,2.064.9c2.844,1.245,6.21,1.4,8.474,3.486a7.041,7.041,0,0,0,2.332,1.894,11.906,11.906,0,0,1,1.308.341c1.075.506,1.24,1.928,1.826,2.957a6.351,6.351,0,0,1,.483.853,3.361,3.361,0,0,1,.154,1.092l.08,2.7a99.774,99.774,0,0,1-.216,13.558,11.189,11.189,0,0,0,.051,4.436c.114.387.279.756.375,1.137a7.734,7.734,0,0,1,.148,1.4l.063,1.746a.421.421,0,0,1-.557.518c-2.44-.216-4.9-1.592-7.2-.762" transform="translate(696.585 2103.266)" fill="#464353"/>
    <path id="Path_341" data-name="Path 341" d="M979.164,611.732a.75.75,0,0,0-.273.228,1.939,1.939,0,0,0,0,2.309.775.775,0,0,1,.136.227.669.669,0,0,1-.068.387,1.28,1.28,0,0,0,.176,1.433c.176.148.415.222.529.415.2.33-.08.751-.034,1.137.057.506.654.756,1.137.819a1.211,1.211,0,0,0,1.109-.3.921.921,0,0,0,0-1.007,2.694,2.694,0,0,0-.751-.751,1.138,1.138,0,0,0,1.075-1.041,1.615,1.615,0,0,0-.648-1.416c-.1-.085-.227-.171-.256-.307s.108-.324.233-.455c.569-.569,1.007-1.962-.063-2.275a2.631,2.631,0,0,0-1.137.051c-.273.085-.273.25-.483.364S979.4,611.612,979.164,611.732Z" transform="translate(720.878 2081.526)" fill="#a1616a"/>
    <path id="Path_342" data-name="Path 342" d="M996.032,543.14a1.877,1.877,0,0,0-1.444.728,4.158,4.158,0,0,0-.6,1.934,16.949,16.949,0,0,1-2.275,6.176" transform="translate(715.185 2110.837)" opacity="0.1"/>
    <path id="Path_343" data-name="Path 343" d="M999.58,545.88a2.207,2.207,0,0,0-1.888,1.137,6.314,6.314,0,0,0-.478,1.928,10.476,10.476,0,0,1-1.894,4.044" transform="translate(713.628 2109.656)" opacity="0.1"/>
    <path id="Path_344" data-name="Path 344" d="M336.95,605.038c.33,3.594-2.383,7.075-1.592,10.589.171.751.495,1.462.614,2.218.324,2.087-.921,4.066-2.11,5.812l-10.2,14.98a9.707,9.707,0,0,1-1.462,1.8c-1.956,1.706-4.88,1.553-7.444,2.07a12.767,12.767,0,0,0-4.982,2.206.324.324,0,0,0-.068.449,4.294,4.294,0,0,0,3.708,1.74c.267.353,0,.87-.37,1.137-.569.381-1.3.478-1.41,1.41a1.524,1.524,0,0,0,.188.933,2.883,2.883,0,0,0,1.786,1.24c3.532,1.081,7.353-.813,9.992-3.412s4.55-5.841,7.143-8.474c1.439-1.45,3.071-2.7,4.55-4.112a52.343,52.343,0,0,0,7.467-9.668,10.73,10.73,0,0,0,1.615-3.287c.273-1.172.148-2.406.466-3.566a12.87,12.87,0,0,1,2.445-3.981,13.215,13.215,0,0,0,2.781-8.616,8.249,8.249,0,0,0-5.039-7.149,4.51,4.51,0,0,0-2.844-.176,6.864,6.864,0,0,0-2.878,2.275l-1.934,2.241a5.164,5.164,0,0,0-1.137,1.706,1.792,1.792,0,0,0,.4,1.905" transform="translate(1009.354 2086.731)" fill="#fbbebe"/>
    <path id="Path_345" data-name="Path 345" d="M336.95,605.038c.33,3.594-2.383,7.075-1.592,10.589.171.751.495,1.462.614,2.218.324,2.087-.921,4.066-2.11,5.812l-10.2,14.98a9.707,9.707,0,0,1-1.462,1.8c-1.956,1.706-4.88,1.553-7.444,2.07a12.767,12.767,0,0,0-4.982,2.206.324.324,0,0,0-.068.449,4.294,4.294,0,0,0,3.708,1.74c.267.353,0,.87-.37,1.137-.569.381-1.3.478-1.41,1.41a1.524,1.524,0,0,0,.188.933,2.883,2.883,0,0,0,1.786,1.24c3.532,1.081,7.353-.813,9.992-3.412s4.55-5.841,7.143-8.474c1.439-1.45,3.071-2.7,4.55-4.112a52.343,52.343,0,0,0,7.467-9.668,10.73,10.73,0,0,0,1.615-3.287c.273-1.172.148-2.406.466-3.566a12.87,12.87,0,0,1,2.445-3.981,13.215,13.215,0,0,0,2.781-8.616,8.249,8.249,0,0,0-5.039-7.149,4.51,4.51,0,0,0-2.844-.176,6.864,6.864,0,0,0-2.878,2.275l-1.934,2.241a5.164,5.164,0,0,0-1.137,1.706,1.792,1.792,0,0,0,.4,1.905" transform="translate(1009.354 2086.731)" opacity="0.05"/>
    <path id="Path_346" data-name="Path 346" d="M216.931,619.021c.569,1.8,1.137,3.594,1.826,5.346a45.237,45.237,0,0,0,4.726,8.622,62.113,62.113,0,0,0,3.907,5.118c1.74,2.053,3.685,4.117,4.3,6.739a34.131,34.131,0,0,1,.387,4.646,5.674,5.674,0,0,0,1.905,4.117,7.079,7.079,0,0,0,3.139,1.035c.785.125,1.769.165,2.178-.517a1.94,1.94,0,0,0,.216-.9l.193-2.275c.04-.489.21-1.137.7-1.137s.739.631,1.137.921a1.234,1.234,0,0,0,1.706-.569,2.844,2.844,0,0,0,.045-1.99,9.452,9.452,0,0,0-4.851-6.011,14.59,14.59,0,0,1-2.366-1.234,8.049,8.049,0,0,1-1.86-2.343c-4.3-7.08-8.622-14.218-11.659-21.9a16.2,16.2,0,0,1-1.2-4.316,27.869,27.869,0,0,1,.188-4.55,26.041,26.041,0,0,0-.751-8.121,6.387,6.387,0,0,0-.779-1.973c-1.245-1.9-4.186-2.178-6.04-.87a6.222,6.222,0,0,0-2.4,4.39c-.136,1.53.751,3.128,1.2,4.55Q214.866,612.407,216.931,619.021Z" transform="translate(1051.654 2088.017)" fill="#a1616a"/>
    <path id="Path_347" data-name="Path 347" d="M216.931,619.021c.569,1.8,1.137,3.594,1.826,5.346a45.237,45.237,0,0,0,4.726,8.622,62.113,62.113,0,0,0,3.907,5.118c1.74,2.053,3.685,4.117,4.3,6.739a34.131,34.131,0,0,1,.387,4.646,5.674,5.674,0,0,0,1.905,4.117,7.079,7.079,0,0,0,3.139,1.035c.785.125,1.769.165,2.178-.517a1.94,1.94,0,0,0,.216-.9l.193-2.275c.04-.489.21-1.137.7-1.137s.739.631,1.137.921a1.234,1.234,0,0,0,1.706-.569,2.844,2.844,0,0,0,.045-1.99,9.452,9.452,0,0,0-4.851-6.011,14.59,14.59,0,0,1-2.366-1.234,8.049,8.049,0,0,1-1.86-2.343c-4.3-7.08-8.622-14.218-11.659-21.9a16.2,16.2,0,0,1-1.2-4.316,27.869,27.869,0,0,1,.188-4.55,26.041,26.041,0,0,0-.751-8.121,6.387,6.387,0,0,0-.779-1.973c-1.245-1.9-4.186-2.178-6.04-.87a6.222,6.222,0,0,0-2.4,4.39c-.136,1.53.751,3.128,1.2,4.55Q214.866,612.407,216.931,619.021Z" transform="translate(1051.654 2088.017)" opacity="0.05"/>
    <path id="Path_348" data-name="Path 348" d="M365.985,752.041c-2.229,1.359-5,1.439-7.6,1.137-.415-.051-.91-.085-1.177.239-.387.466.068,1.137.54,1.536a11.306,11.306,0,0,0,5.221,2.144,35.61,35.61,0,0,0,5.118.341,86.536,86.536,0,0,0,13.95-.518,1.849,1.849,0,0,0,.762-.222,1.444,1.444,0,0,0,.569-.876,3.486,3.486,0,0,0-1.217-3.321,10.237,10.237,0,0,0-3.253-1.746l-4.049-1.575c-.95-.37-2.48-1.354-3.509-1.274C369.431,748.032,367.594,751.1,365.985,752.041Z" transform="translate(988.901 2022.526)" fill="#3f3d56"/>
    <path id="Path_349" data-name="Path 349" d="M384.33,767.781a9.946,9.946,0,0,1-6.8,2.536c-.637,0-1.524.119-1.524.756a1,1,0,0,0,.182.529,6.256,6.256,0,0,0,3.515,2.753,12.516,12.516,0,0,0,4.243.267l4.152-.216c.785-.04,1.575-.08,2.354-.176s1.626-.256,2.44-.381a32.55,32.55,0,0,1,6.045-.284,1.758,1.758,0,0,0,1.49-.4c.37-.466.154-1.137.034-1.706-.25-1.2,0-2.463-.233-3.674a6.459,6.459,0,0,0-4.237-4.51c-1.865-.711-5.175-1.524-6.944-.341C387.151,764.192,386.008,766.262,384.33,767.781Z" transform="translate(980.73 2016.301)" fill="#3f3d56"/>
    <path id="Path_350" data-name="Path 350" d="M373.89,660.008c-1.706,2.246-3.412,4.84-3.014,7.615a17.172,17.172,0,0,0,1.678,4.2,29.623,29.623,0,0,1,1.706,5.9c.631,2.94,1.263,5.886,1.655,8.866a55.367,55.367,0,0,1,.37,10.18,3.434,3.434,0,0,1-.711,2.275c-.227.227-.523.415-.62.722a1.223,1.223,0,0,0,.131.853,9.446,9.446,0,0,0,5.062,4.658,19.386,19.386,0,0,0,6.881,1.285,1.934,1.934,0,0,0,.921-.119,1.775,1.775,0,0,0,.711-.813c1.706-3.242.756-7.154.785-10.805,0-3.054.739-6.08.609-9.133-.108-2.445-.762-4.834-1-7.274-.392-3.981.341-8.019,1.075-11.971.569-3.026,1.137-6.057,1.848-9.054a17.265,17.265,0,0,1,1.956-5.255c.8-1.257,1.877-2.309,2.787-3.492a15.85,15.85,0,0,0,3.117-11.585c-.057-.409-5.858,1.467-6.358,1.706a19.709,19.709,0,0,0-5.687,3.646,47.082,47.082,0,0,0-3.572,4.413q-2.491,3.031-4.9,6.1Q376.563,656.442,373.89,660.008Z" transform="translate(982.97 2070.354)" fill="#464353"/>
    <path id="Path_351" data-name="Path 351" d="M373.89,660.008c-1.706,2.246-3.412,4.84-3.014,7.615a17.172,17.172,0,0,0,1.678,4.2,29.623,29.623,0,0,1,1.706,5.9c.631,2.94,1.263,5.886,1.655,8.866a55.367,55.367,0,0,1,.37,10.18,3.434,3.434,0,0,1-.711,2.275c-.227.227-.523.415-.62.722a1.223,1.223,0,0,0,.131.853,9.446,9.446,0,0,0,5.062,4.658,19.386,19.386,0,0,0,6.881,1.285,1.934,1.934,0,0,0,.921-.119,1.775,1.775,0,0,0,.711-.813c1.706-3.242.756-7.154.785-10.805,0-3.054.739-6.08.609-9.133-.108-2.445-.762-4.834-1-7.274-.392-3.981.341-8.019,1.075-11.971.569-3.026,1.137-6.057,1.848-9.054a17.265,17.265,0,0,1,1.956-5.255c.8-1.257,1.877-2.309,2.787-3.492a15.85,15.85,0,0,0,3.117-11.585c-.057-.409-5.858,1.467-6.358,1.706a19.709,19.709,0,0,0-5.687,3.646,47.082,47.082,0,0,0-3.572,4.413q-2.491,3.031-4.9,6.1Q376.563,656.442,373.89,660.008Z" transform="translate(982.97 2070.354)" opacity="0.05"/>
    <path id="Path_352" data-name="Path 352" d="M391.56,640.5c.364,1.74,2.053,3.071,2.1,4.851.04,1.422-.972,2.616-1.706,3.839a25.742,25.742,0,0,0-1.74,3.947,60.183,60.183,0,0,1-5.118,10.163c-.972,1.547-2.064,3.225-1.837,5.039a7.437,7.437,0,0,0,.882,2.406l2.923,5.807a16.669,16.669,0,0,1,1.49,3.668c.256,1.1.279,2.275.427,3.367.461,3.56,2.127,7.143,1.137,10.6-.085.3-.4.654-.631.449a11.063,11.063,0,0,1,1.666,5.687c-.034,1.075-.364,2.19.034,3.19a3.48,3.48,0,0,1,.444,1.217c0,.29-.136.569-.165.859a1.9,1.9,0,0,0,1.456,1.769c.785.262,1.638.245,2.428.478,1.524.455,2.6,1.763,3.913,2.673a8.218,8.218,0,0,0,4.487,1.462,1.137,1.137,0,0,0,.66-.131,1.08,1.08,0,0,0,.37-.8,4.459,4.459,0,0,0-1.609-3.873,1.791,1.791,0,0,1-.569-.626,1.518,1.518,0,0,1-.057-.7,51.875,51.875,0,0,0-.171-9.583,14.782,14.782,0,0,1-.148-3.048,12.465,12.465,0,0,0,.245-2.542,12.981,12.981,0,0,0-.779-2.428,17.024,17.024,0,0,1-.37-4.55,39.874,39.874,0,0,0-1.285-7.786,5.909,5.909,0,0,0-1.211-2.81c-.609-.637-1.592-1.24-1.359-2.087a2.41,2.41,0,0,1,.569-.83,3.333,3.333,0,0,0,.7-2.542,1.137,1.137,0,0,0,1.308-.614,20.473,20.473,0,0,0,10.282-11.693,3.8,3.8,0,0,1,.461-1.041,4.744,4.744,0,0,1,1.882-1.223c2.127-1.069,3.594-3.077,4.942-5.039a11.721,11.721,0,0,0,1.911-3.657,12.047,12.047,0,0,0,.262-2.639l.119-4.55a2.612,2.612,0,0,0-.085-.893,2.275,2.275,0,0,0-.495-.728,8.833,8.833,0,0,0-4.857-2.616c-1.245-.222-2.519-.182-3.782-.284-2.445-.2-4.862-.961-7.314-.785a11.766,11.766,0,0,0-9.1,6.352C393.6,639.44,392.925,640.463,391.56,640.5Z" transform="translate(977.618 2072.581)" fill="#464353"/>
    <path id="Path_353" data-name="Path 353" d="M172.837,759.47a6.192,6.192,0,0,0,2.616.313c.063-.722,1.035-.882,1.757-.847a2.02,2.02,0,0,1,1.035.228c.182.114.318.284.495.4a2.127,2.127,0,0,0,1.024.262l3.765.319a11.273,11.273,0,0,0,4.993-.33,1.632,1.632,0,0,0,.8-.535c.427-.608,0-1.484-.569-1.928s-1.348-.648-1.939-1.1c-1.308-1-1.484-2.844-2.178-4.345a12.536,12.536,0,0,0-1.8-2.61,9.992,9.992,0,0,0-1.78-1.82c-1.507-1.092-3.247-1.069-5.016-1.223-1.251-.114-2.428-.188-3.327.921-1.109,1.376-.665,4.152-.6,5.8a41.479,41.479,0,0,0,.717,6.5Z" transform="translate(1068.729 2023.263)" fill="#514e7f"/>
    <path id="Path_354" data-name="Path 354" d="M172.837,759.47a6.192,6.192,0,0,0,2.616.313c.063-.722,1.035-.882,1.757-.847a2.02,2.02,0,0,1,1.035.228c.182.114.318.284.495.4a2.127,2.127,0,0,0,1.024.262l3.765.319a11.273,11.273,0,0,0,4.993-.33,1.632,1.632,0,0,0,.8-.535c.427-.608,0-1.484-.569-1.928s-1.348-.648-1.939-1.1c-1.308-1-1.484-2.844-2.178-4.345a12.536,12.536,0,0,0-1.8-2.61,9.992,9.992,0,0,0-1.78-1.82c-1.507-1.092-3.247-1.069-5.016-1.223-1.251-.114-2.428-.188-3.327.921-1.109,1.376-.665,4.152-.6,5.8a41.479,41.479,0,0,0,.717,6.5Z" transform="translate(1068.729 2023.263)" opacity="0.05"/>
    <path id="Path_355" data-name="Path 355" d="M169.479,638.548a2.636,2.636,0,0,0-1.439,3,10.762,10.762,0,0,0,1.518,3.27c1.672,3,2.4,6.426,3.8,9.554,1.052,2.337,2.474,4.5,3.515,6.824a11.483,11.483,0,0,1,1.052,7.473c-.307,1.211-.9,2.326-1.3,3.509a19.9,19.9,0,0,0-.762,3.981,75.455,75.455,0,0,0-.273,13.74,4.175,4.175,0,0,0,.347,1.627c.233.455.643.933.444,1.4-.08.188-.25.324-.336.512-.239.523.245,1.069.682,1.439a1.177,1.177,0,0,1-.739.569,1.746,1.746,0,0,1,.745,1.945c-.392.057-.415.654-.165.967s.631.512.808.864a1.212,1.212,0,0,1-.665,1.524,3.117,3.117,0,0,1-1.814.136,19.652,19.652,0,0,1-3.037-.665,2.729,2.729,0,0,1-.933-.426,2.769,2.769,0,0,1-.836-1.843,33.3,33.3,0,0,1-.21-5.687c.165-9.19,0-18.392-.4-27.577a31.577,31.577,0,0,0-2.707-10.715,54.973,54.973,0,0,0-2.639-5.118c-2.059-3.788-3.89-7.962-3.412-12.256.051-.461.222-1.018.677-1.092a.984.984,0,0,1,.523.085,24.185,24.185,0,0,1,2.758,1.524A10.452,10.452,0,0,0,169.479,638.548Z" transform="translate(1073.611 2071.004)" fill="#464353"/>
    <path id="Path_356" data-name="Path 356" d="M169.479,638.548a2.636,2.636,0,0,0-1.439,3,10.762,10.762,0,0,0,1.518,3.27c1.672,3,2.4,6.426,3.8,9.554,1.052,2.337,2.474,4.5,3.515,6.824a11.483,11.483,0,0,1,1.052,7.473c-.307,1.211-.9,2.326-1.3,3.509a19.9,19.9,0,0,0-.762,3.981,75.455,75.455,0,0,0-.273,13.74,4.175,4.175,0,0,0,.347,1.627c.233.455.643.933.444,1.4-.08.188-.25.324-.336.512-.239.523.245,1.069.682,1.439a1.177,1.177,0,0,1-.739.569,1.746,1.746,0,0,1,.745,1.945c-.392.057-.415.654-.165.967s.631.512.808.864a1.212,1.212,0,0,1-.665,1.524,3.117,3.117,0,0,1-1.814.136,19.652,19.652,0,0,1-3.037-.665,2.729,2.729,0,0,1-.933-.426,2.769,2.769,0,0,1-.836-1.843,33.3,33.3,0,0,1-.21-5.687c.165-9.19,0-18.392-.4-27.577a31.577,31.577,0,0,0-2.707-10.715,54.973,54.973,0,0,0-2.639-5.118c-2.059-3.788-3.89-7.962-3.412-12.256.051-.461.222-1.018.677-1.092a.984.984,0,0,1,.523.085,24.185,24.185,0,0,1,2.758,1.524A10.452,10.452,0,0,0,169.479,638.548Z" transform="translate(1073.611 2071.004)" opacity="0.05"/>
    <path id="Path_357" data-name="Path 357" d="M141.666,620.731a3.032,3.032,0,0,0-4.18.449,22.85,22.85,0,0,0-2.161,1.9,11.562,11.562,0,0,0-2.582,11.437,22.854,22.854,0,0,0,3.162,5.607l2.5,3.594c3.816,5.482,7.638,10.965,11.636,16.316a.614.614,0,0,0,.432.569c.148.04.324.034.415.154a.443.443,0,0,1,.051.245,3.713,3.713,0,0,1-.222,1.137.529.529,0,0,0-.046.392c.125.3.677.131.847.415a.452.452,0,0,1-.182.569.658.658,0,0,0-.313.569c.028.233.409.449.392.734,0,.159-.136.279-.233.4a1.029,1.029,0,0,0,.125,1.314c.262,2.616-1.137,5.09-1.439,7.706-.449,4.112,1.41,8.127,1.638,12.256a3.281,3.281,0,0,0,.256,1.353c.387.711,1.376,1.138,1.342,1.951a7.451,7.451,0,0,1-.279.984,7.909,7.909,0,0,0,.148,1.4c0,.472-.4,1.035-.836.853q.495,1.638.876,3.3l8.758.722a7.866,7.866,0,0,0-.08-2.366c-.182-.842-.569-1.632-.762-2.474a2.918,2.918,0,0,1,.347-2.474.967.967,0,0,1-.967-.8,3.9,3.9,0,0,1,0-1.359c.233-2.275-.728-4.55-.7-6.825a32.877,32.877,0,0,1,.984-5.317c.682-3.8-.028-7.922,1.661-11.374,1.024-2.093,2.44-4.413,1.291-6.438-.569-1-1.564-1.706-2.212-2.627a10.676,10.676,0,0,1-1.189-2.844c-1.354-4.186-3.532-8.047-5.448-12.011a12.643,12.643,0,0,1-1.172-3.156,16.044,16.044,0,0,1-.142-2.912,44.632,44.632,0,0,0-.324-5.232,3.814,3.814,0,0,0-2-3.412C148.189,623.5,144.765,622.364,141.666,620.731Z" transform="translate(1085.886 2077.646)" fill="#464353"/>
    <path id="Path_358" data-name="Path 358" d="M166.615,765.115a6.194,6.194,0,0,0,2.616.313c.068-.722,1.035-.882,1.757-.847a2.02,2.02,0,0,1,1.007.233c.182.114.318.284.5.4a2.093,2.093,0,0,0,1.024.262l3.759.318a11.305,11.305,0,0,0,5-.33,1.644,1.644,0,0,0,.8-.535c.427-.609,0-1.484-.569-1.928s-1.348-.648-1.945-1.1c-1.3-1-1.484-2.844-2.178-4.345a12.541,12.541,0,0,0-1.8-2.61,9.964,9.964,0,0,0-1.774-1.82c-1.513-1.092-3.247-1.069-5.016-1.223-1.257-.114-2.434-.188-3.327.921-1.137,1.376-.671,4.152-.6,5.8A42.254,42.254,0,0,0,166.615,765.115Z" transform="translate(1071.43 2020.826)" fill="#514e7f"/>
    <rect id="Rectangle_79" data-name="Rectangle 79" width="44.376" height="44.376" transform="translate(1286.457 2707.361)" fill="#fff"/>
    <path id="Path_359" data-name="Path 359" d="M292.975,686.8c0,5.062-2.372,8.246-6.119,8.246-1.917,0-3.378-1.024-3.634-2.542h-.273a3.981,3.981,0,0,1-3.941,2.451c-3.333,0-5.556-2.673-5.556-6.648,0-3.816,2.241-6.472,5.511-6.472a3.981,3.981,0,0,1,3.736,2.235h.273v-1.9H285.7v8.843a1.581,1.581,0,0,0,1.706,1.763c1.888,0,3.094-2.275,3.094-5.858,0-5.687-4.265-9.492-10.561-9.492s-10.663,4.55-10.663,10.965c0,6.569,4.39,10.766,11.226,10.766a20.6,20.6,0,0,0,3.714-.319,1.081,1.081,0,0,1,.455,2.11,18.9,18.9,0,0,1-4.277.466c-8.309,0-13.649-5.118-13.649-13.08,0-7.78,5.431-13.12,13.342-13.12C287.7,675.174,292.975,679.923,292.975,686.8Zm-16.578,1.57c0,2.525,1.183,4.055,3.117,4.055,2.036,0,3.321-1.57,3.321-4.055s-1.285-4.021-3.287-4.021-3.151,1.49-3.151,4.021Z" transform="translate(1028.782 2041.258)" fill="#3480e3"/>
    <ellipse id="Ellipse_54" data-name="Ellipse 54" cx="8.673" cy="8.673" rx="8.673" ry="8.673" transform="translate(1268.181 2665.869)" fill="#a1616a"/>
    <path id="Path_360" data-name="Path 360" d="M208.466,582.55c-1.245,1.075-3.026,1.137-4.658,1.319a29.113,29.113,0,0,0-10.021,2.9,3.576,3.576,0,0,0-1.137.8,3.281,3.281,0,0,0-.569,1.24,8.2,8.2,0,0,0-.33,3.014,8.69,8.69,0,0,0,.836,2.844,15.264,15.264,0,0,0,5.38,6.131,3.908,3.908,0,0,0,1.308.626c1.137.239,2.246-.427,3.367-.722a5.515,5.515,0,0,1,3.111.1c.944.313,1.939.887,2.844.506a2.968,2.968,0,0,0,1.3-1.473,49.986,49.986,0,0,0,2.366-5.181,19.636,19.636,0,0,1,.859-2.013c1.007-1.917,2.747-3.412,3.611-5.38a1.183,1.183,0,0,0,.08-1.012,1.4,1.4,0,0,0-.637-.489,15.2,15.2,0,0,1-3.463-2.719c-.569-.569-1.621-2.025-2.44-2.155C209.37,580.764,209.092,582.016,208.466,582.55Z" transform="translate(1060.21 2094.563)" fill="#a1616a"/>
    <path id="Path_361" data-name="Path 361" d="M189.539,604.728a5.175,5.175,0,0,1-3.281.04,36.217,36.217,0,0,1-8.246-2.4,4.414,4.414,0,0,1-2.025-1.553,4.965,4.965,0,0,1-.569-1.945l-.478-3.225a19.553,19.553,0,0,1,.148-3.31.967.967,0,0,0-.188-.722.779.779,0,0,0-.569-.176c-1.3,0-2.087,1.382-3,2.309a5.545,5.545,0,0,1-1.843,1.24c-.836.341-1.865.569-2.2,1.416-.142.347-.125.745-.267,1.092-.569,1.388-3.071.927-3.7,2.275-.182.387-.171.876-.472,1.183s-.853.3-1.308.375c-1.809.3-2.69,2.389-4.237,3.372-1.3.83-2.98.813-4.379,1.462a16.761,16.761,0,0,1-2.275,1.137,10.751,10.751,0,0,1-2.639.131.711.711,0,0,0-.529.171.728.728,0,0,0-.085.569,15.964,15.964,0,0,0,9.867,12.358,3.482,3.482,0,0,1,.842.4c.79.569.927,1.86,1.82,2.275a1.883,1.883,0,0,0,1.9-.409,16.542,16.542,0,0,0,1.371-1.513,5.459,5.459,0,0,1,3.054-1.6c1.075-.171,2.275-.045,3.145-.705a9.671,9.671,0,0,0,.99-1.058,6.2,6.2,0,0,1,2.275-1.342,22.75,22.75,0,0,1,7.109-1.5c2.275-.131,4.635.08,6.79-.665a3.979,3.979,0,0,0,1.513-.853,4.549,4.549,0,0,0,1.012-1.757,13.416,13.416,0,0,0,.461-7.069Z" transform="translate(1079.341 2090.009)" fill="#514e7f"/>
    <path id="Path_362" data-name="Path 362" d="M198.182,592.2c.643-.057,1.285,0,1.928,0,.756,0,1.5-.182,2.275-.188a5.607,5.607,0,0,1,5.289,4.026,1.024,1.024,0,0,1,.034.569.4.4,0,0,1-.438.3,9.611,9.611,0,0,0-.973-1.951,5.523,5.523,0,0,0-2.912-2.025,7.559,7.559,0,0,0-3.583-.131c-.489.091-.972.222-1.456.358l-2.36.637c-.427.114-.853.233-1.268.387-.318.114-.87.569-1.183.569-.427,0-.08-.37.108-.62a3.038,3.038,0,0,1,1.513-1.1,12.735,12.735,0,0,1,3.026-.83Z" transform="translate(1059.518 2089.76)" fill="#514e7f"/>
    <path id="Path_363" data-name="Path 363" d="M208.1,620.718c.569,1.8,1.137,3.594,1.826,5.346a45.237,45.237,0,0,0,4.732,8.622,62.126,62.126,0,0,0,3.907,5.118c1.74,2.053,3.685,4.117,4.3,6.739a34.129,34.129,0,0,1,.387,4.646,5.674,5.674,0,0,0,1.905,4.117,7.081,7.081,0,0,0,3.139,1.035c.785.125,1.769.165,2.178-.518a1.939,1.939,0,0,0,.216-.9l.188-2.275c.046-.489.216-1.138.705-1.138s.739.631,1.137.921a1.234,1.234,0,0,0,1.706-.569,2.883,2.883,0,0,0,.045-1.99,9.452,9.452,0,0,0-4.84-6.017,14.585,14.585,0,0,1-2.366-1.234,7.963,7.963,0,0,1-1.86-2.343c-4.305-7.081-8.627-14.218-11.659-21.9a16.2,16.2,0,0,1-1.2-4.317,27.868,27.868,0,0,1,.188-4.55,26.042,26.042,0,0,0-.734-8.133,6.387,6.387,0,0,0-.779-1.973c-1.245-1.9-4.186-2.178-6.04-.87a6.222,6.222,0,0,0-2.4,4.39c-.136,1.53.751,3.128,1.2,4.55Q206.038,614.1,208.1,620.718Z" transform="translate(1055.449 2087.292)" fill="#a1616a"/>
    <path id="Path_364" data-name="Path 364" d="M234.479,562.9c.068-.722-.569-1.376-1.314-1.837a18.331,18.331,0,0,1-2.229-1.365c-.66-.569-1.018-1.314-1.678-1.882a7.394,7.394,0,0,0-2.5-1.245,19,19,0,0,0-5.983-1.075,10.539,10.539,0,0,0-5.727,1.513,3.412,3.412,0,0,0-.972.9,3.98,3.98,0,0,0-.472,1.439,28.438,28.438,0,0,1-1.5,4.55,10.556,10.556,0,0,1-2.844,4.6c-1.621,1.354-4.106,2.133-5.175,3.765a1.223,1.223,0,0,0-.233,1.052c.154.409.648.688,1.1.95a14.9,14.9,0,0,1,6.074,5.812,6.739,6.739,0,0,1-.535,7.251c-.609.8-1.45,1.74-.853,2.542.9,1.217,4.026.523,4.743,1.808a2.57,2.57,0,0,1,.1,1.331c0,1.348,1.3,2.554,2.883,3.173a16.075,16.075,0,0,0,5.187.853,4.482,4.482,0,0,0,.131-3.355,1.342,1.342,0,0,1-.131-.762,1.831,1.831,0,0,1,.569-.734c1.905-1.8,1.5-4.442.358-6.574s-2.917-4.089-3.577-6.335a3.218,3.218,0,0,1,.569-3.3,11.487,11.487,0,0,1,1.632-1.194,6.2,6.2,0,0,0,2.275-2.844c.529-1.479.449-3.259,2.008-4.237s3.577-.66,5.221-1.291A5.6,5.6,0,0,0,234.479,562.9Z" transform="translate(1054.995 2105.51)" fill="#464353"/>
    <ellipse id="Ellipse_55" data-name="Ellipse 55" cx="9.458" cy="9.458" rx="9.458" ry="9.458" transform="translate(1328.646 2662.02)" fill="#fbbebe"/>
    <path id="Path_365" data-name="Path 365" d="M351.358,571.834a12.261,12.261,0,0,0,7.848,5.488L358.5,579.9c-1.228,4.447-2.616,9.156-6.051,12.239a5.722,5.722,0,0,0-.961-4.425,16.755,16.755,0,0,0-3.208-3.355l-5.443-4.737a1.484,1.484,0,0,1-.409-.455,1.387,1.387,0,0,1,0-1.035c.694-2.161,2.673-3.509,4.277-4.965a15.087,15.087,0,0,0,2.155-2.508C349.971,569.127,350.67,570.68,351.358,571.834Z" transform="translate(995.259 2099.244)" fill="#fbbebe"/>
    <path id="Path_366" data-name="Path 366" d="M357.113,587.062a5.12,5.12,0,0,1-.279,2.087,1.467,1.467,0,0,1-1.706.876c.2-.449-.324-.961-.813-.9a1.53,1.53,0,0,0-1.081.916,3.413,3.413,0,0,0-.313,2.116c.154.9.671,1.757.535,2.656-.108.745-.66,1.49-.364,2.19a3.516,3.516,0,0,0,.705.842,2.389,2.389,0,0,1-.256,3.276l7.393.142a5.186,5.186,0,0,0,.916,3.589,22.6,22.6,0,0,0,16.845,11,1.467,1.467,0,0,0-.353,2.241,2.074,2.074,0,0,0,2.366.136,17.949,17.949,0,0,0,2.03-1.518,6.205,6.205,0,0,1,4.163-1.138c.927.085,1.82.381,2.747.432,2.73.148,5.079-1.82,7.689-2.622,1.917-.569,4.083-.569,5.687-1.786a2.255,2.255,0,0,0,1.058-2.2,3.579,3.579,0,0,0-.8-1.285,22.892,22.892,0,0,1-2.133-3.981A23.765,23.765,0,0,0,395.825,597a47.04,47.04,0,0,0-5.278-4.009,8.936,8.936,0,0,0-1.433-.859,14.661,14.661,0,0,1-1.956-.8,10.914,10.914,0,0,1-2.03-2.275c-1.462-1.706-3.708-2.485-5.511-3.827-1.206-.9-2.275-2.081-3.714-2.519-.7-.21-1.45-.227-2.15-.438-1.592-.483-2.753-1.9-4.316-2.468a17.464,17.464,0,0,0-3.907-.5,9.1,9.1,0,0,1-4.015-1.518,4.829,4.829,0,0,0-1.3-.762c-1.973-.569-2.133,3.082-2.32,4.356A36.524,36.524,0,0,0,357.113,587.062Z" transform="translate(990.71 2096.249)" fill="#3f3d56"/>
    <path id="Path_367" data-name="Path 367" d="M342.989,611.876c.33,3.589-2.383,7.069-1.592,10.589.171.751.489,1.462.608,2.218.33,2.087-.916,4.061-2.1,5.807l-10.237,14.98a9.1,9.1,0,0,1-1.456,1.8c-1.956,1.735-4.879,1.553-7.444,2.076a12.746,12.746,0,0,0-4.988,2.207.324.324,0,0,0-.063.444,4.277,4.277,0,0,0,3.708,1.74c.267.353,0,.876-.37,1.137-.569.381-1.3.483-1.41,1.41a1.581,1.581,0,0,0,.182.938,2.912,2.912,0,0,0,1.791,1.24c3.532,1.081,7.348-.819,9.992-3.412s4.55-5.841,7.143-8.474c1.439-1.456,3.071-2.7,4.55-4.112a53.759,53.759,0,0,0,7.467-9.668,10.759,10.759,0,0,0,1.615-3.293c.273-1.166.148-2.406.466-3.56a12.636,12.636,0,0,1,2.445-3.981,13.23,13.23,0,0,0,2.781-8.622,8.258,8.258,0,0,0-5.039-7.149,4.51,4.51,0,0,0-2.844-.171,6.776,6.776,0,0,0-2.878,2.275l-1.939,2.241a5.324,5.324,0,0,0-1.137,1.706,1.792,1.792,0,0,0,.4,1.905" transform="translate(1006.762 2083.782)" fill="#fbbebe"/>
    <path id="Path_368" data-name="Path 368" d="M367.794,590.408c-1.342.08-2.844.21-3.771,1.137a5.269,5.269,0,0,0-.944,1.49,14.72,14.72,0,0,0-1.882,5.92,26.694,26.694,0,0,0,.682,4.948c.21,1.371-.324,2.77-.427,4.157A28.383,28.383,0,0,0,366.821,606a17.953,17.953,0,0,1,3.145-1.632c1.6-.535,4.294.381,5.807,1.137.085-1.069-.717-2.929-.631-3.981a4.361,4.361,0,0,1,.239-1.325,7.9,7.9,0,0,1,.8-1.28,5.238,5.238,0,0,0-.472-6.148c-1.348-1.518-3.463-2.087-5.482-2.326a23.976,23.976,0,0,0-3.833-.131" transform="translate(987.121 2090.504)" fill="#3f3d56"/>
    <path id="Path_369" data-name="Path 369" d="M319.536,551.429l-.216-1.78c1.5.381,2.912-.881,3.867-2.2s1.837-2.844,3.287-3.412c1.769-.665,3.64.4,5.329,1.274a16.68,16.68,0,0,0,6.114,2.025,4.33,4.33,0,0,1,1.012.165c1.1.392,1.621,1.769,1.78,3.02a11.846,11.846,0,0,0,.654,3.7c.415.842,1.137,1.473,1.547,2.275,1.137,2.235.04,5.295,1.263,7.49l-3.031-2.775c-.279-.256-.671-.523-.972-.307s-.262.569-.364.836a1.587,1.587,0,0,1-2.155.785,5.909,5.909,0,0,1-1.928-1.763,11.784,11.784,0,0,0-4.811-3.645,6.148,6.148,0,0,0-5.09.3c-1.416.8-2.451,2.662-4.186,2.724-2.377.091-3.367-4.334-4.464-6.08a2.155,2.155,0,0,0,.626-2.684C317.961,551.321,319.5,551.156,319.536,551.429Z" transform="translate(1006.107 2110.539)" fill="#464353"/>
    <path id="Path_370" data-name="Path 370" d="M709.1,713.6c-.461-1.951-.739-3.657-.739-3.657a7.575,7.575,0,0,0-.847-3.714v-.535h0v-3.924a12.977,12.977,0,0,1,.99-2.053c.705-1.228,0-5.744,0-5.744s-2.616-6.364-1.985-10.4-5.369-17.931-5.369-17.931a17.712,17.712,0,0,1,.569-3.981,2.875,2.875,0,0,0,.074-.83.622.622,0,0,0,0-.1v.034c-.091-2.662-2.2-7.655-2.2-7.655l.284-9.509a28.005,28.005,0,0,0-.847-13.143c-.768-2.627-1.257-4.726-1.57-6.352-.034-.182-.068-.358-.1-.529,4.51-.688,7.962-1.263,7.962-1.263s-2.616-10.948-4.385-12.864-3.179-7.933-3.179-7.933-.921-7.734.569-9.992,1.706-6.159,1.706-6.159,3.412-2.463,3.816-3.56a18.03,18.03,0,0,0,1.137-4.857c0-1.3-.427-2.463-.284-3.151s-.99-3.281-.421-4.516a3.3,3.3,0,0,0,.222-1.189.073.073,0,0,0,0-.034h0a16.909,16.909,0,0,0-.3-3.213,9.1,9.1,0,0,0-3.355-1.8l-.074-.29-.193-.768a2.6,2.6,0,0,0-.336-.2v-1.422l.529-2.5c1.046-4.339-4.754-4.988-4.754-4.988a3.06,3.06,0,0,0-1.644-1.445c-1.137-.409-.193,6.54.353,6.984A22.626,22.626,0,0,1,697.007,562h0l.1.176a2.321,2.321,0,0,0-.267.279l.222,1.507.034.233a6.191,6.191,0,0,0-.927,1.575,3.361,3.361,0,0,1,.847,2.468,7.733,7.733,0,0,0,.353,3.008c-.063-.074-.808-.881-1.553-.682s-2.844.819-2.844.819-1.558.273-1.416.614-1.058,1.848-1.058,1.848l-4.18-3.981c-.046-.119-.085-.239-.125-.358a9.551,9.551,0,0,1-.358-1.706,9.3,9.3,0,0,0,1.331-.427,2.883,2.883,0,0,0,1.137-.739,4.515,4.515,0,0,0,.671-1.8,25.024,25.024,0,0,1,1.552-3.458,11.249,11.249,0,0,0,.808-6.171,4.107,4.107,0,0,0-.637-1.82c-.682-.938-1.922-1.319-2.844-2.07s-1.479-1.888-2.531-2.451a4.987,4.987,0,0,0-3.173-.273,16.959,16.959,0,0,0-5.92,2.15,3.044,3.044,0,0,1-1.985.654,2.679,2.679,0,0,1-1.427-1.047.27.27,0,0,1,0-.062l-.051-.051a7.489,7.489,0,0,0-.648,3.128v.671a1.328,1.328,0,0,1,0,.148h0a1,1,0,0,1-.034.222,1.61,1.61,0,0,1-.387.569,2.517,2.517,0,0,0-.341.466.5.5,0,0,1,.057-.171,2.468,2.468,0,0,0-.438,1.314,1.308,1.308,0,0,0,.318.944,4.555,4.555,0,0,0,.677.569,7.964,7.964,0,0,0-.119,1.388,8.087,8.087,0,0,0,3.935,6.9l.142.358a9.948,9.948,0,0,1,.756,4.55.768.768,0,0,1-.051.336l-.148.171h0s-6.9.068-8.531-1.4-4.1,3.594-4.1,3.594-2.474.483-2.969,0-3.412-.068-3.412-.068a6.256,6.256,0,0,0-4.311-1.57A12.667,12.667,0,0,0,650,570.578h0l-.08-.028h0a3.538,3.538,0,0,0-1.558-.193,30.765,30.765,0,0,1-4.379-4.311c-.967-1.5-5.687-7.092-5.727-7.12v-.267l-.057-.813a3.168,3.168,0,0,1-.421.04.988.988,0,0,0-.1-.284,15.353,15.353,0,0,0-1-2.275s0-1.024.3-1.28-.125-4.021-.125-4.021-3.06-7.149-5.8-1.814c0,0-5.181,3.452-.836,7.479,0,0,1.706.836,1.979,1.5.165.432.751,1.644,1.137,2.445l.176.358-.051.04.068.671v.262c-.819.461-1.371.921-1.24,1.274a7.482,7.482,0,0,1,.495,1.848s6.011,7.524,6.79,10.743c0,0,16.117,9.577,21.418,10.265l-.916,4.789a37.864,37.864,0,0,0-.21,3.9c.068,1.024-.637,5.687-.637,5.687s-.921,6.825-1.706,7.8-.637,5.067-.637,5.067a34.172,34.172,0,0,1-1.058,5.812,14.77,14.77,0,0,0-.21,5.818s-2.69,6.159,3.748,1.985c0,0,3.156-.193,6.825-.318v1.871c-.046,3.526-.068,8.388.091,12.068.284,6.5,2.275,19.336,2.275,19.336v6.461a9.037,9.037,0,0,0-.182,1.848,11.977,11.977,0,0,0,1.74,6.472l.495,4.311a17.859,17.859,0,0,1,1.183,4.55,2.24,2.24,0,0,1-.051.409,3.055,3.055,0,0,0-.057.66,36.956,36.956,0,0,0,1.137,6.643s.074,4.72.779,4.993c.6.233-.807,2.724-1.228,3.412a1.148,1.148,0,0,1-.028-.136c-.051.091-.085.142-.085.142a3.315,3.315,0,0,0-.222,1.194,1.706,1.706,0,0,0,.785,1.661c1.342.825,2.064,1.507.927,1.78a11.3,11.3,0,0,0-1.246.262c0-.051-.045-.108-.062-.159a.762.762,0,0,0-.444.791,3.5,3.5,0,0,0,.427,1.6,17.068,17.068,0,0,0,1.911,3.492l.569-.063a2.679,2.679,0,0,1-.319.569,2.2,2.2,0,0,1-.8.705,2.546,2.546,0,0,1-.967.336,2.7,2.7,0,0,0-2,.972c-.705.91-1.137,2.155.245,3.247l5.056,1.74s8.7,1.137,8.235-.819-.739-3.657-.739-3.657a7.718,7.718,0,0,0-.711-3.463,3.412,3.412,0,0,0-.307-.512l.307-.034s.637-4.311,1.484-5.118c.2-.188.245-.336.193-.449.091-.233-.131-.37-.415-.449l-.063.171a4.272,4.272,0,0,0-.842-.091s-.284-2.275.631-3.082a.87.87,0,0,0,.182-.671,3.867,3.867,0,0,0-.1-.921l-.034.057a32.843,32.843,0,0,0-2.03-5.306,6.56,6.56,0,0,1,.495-2.878c.563-.825-.068-11.152-.068-11.152s.21-4.993-.427-7.319.779-5.067.779-5.067v-.182s-.034-.307-.085-.791v.051c-.142-1.325-.409-3.719-.609-4.823-.284-1.575.068-9.1.068-9.1l1.274-3.213,2.275,5.539,2.4,7.393a6.284,6.284,0,0,1,1.223,3.139c0,.08,0,.159,0,.233a3.718,3.718,0,0,0,0,.495,4.414,4.414,0,0,0,.734,2.633s.637,3.492,1.626,4.379a3.942,3.942,0,0,1,.99,2.6s1.2,5.067,1.769,5.954a8.733,8.733,0,0,1,.495,3.412h0v.188s.165,1.809.159,3.333v.529a5.3,5.3,0,0,1-.148,1.228v-.182a12.661,12.661,0,0,0-.364,3.156c-.034,1.82.245,3.981,1.348,5.238,1.911,2.19,3.111,1.917,3.111,1.917s-.921,2.735-2.053,3.287a.69.69,0,0,0-.119.074.317.317,0,0,0-.028-.159,1.337,1.337,0,0,0-.33,1.024,7.325,7.325,0,0,0,1.4,4.055,2.24,2.24,0,0,0,.955.569l-.176.108a3.972,3.972,0,0,1-.392.188,1.852,1.852,0,0,1-.569.148,2.7,2.7,0,0,0-2,.973c-.705.91-1.137,2.155.245,3.247l5.056,1.74S709.536,715.576,709.1,713.6Z" transform="translate(871.839 2109.503)" fill="url(#linear-gradient)"/>
    <path id="Path_371" data-name="Path 371" d="M707.449,838.926l-4.9-1.74c-1.348-1.092-.916-2.337-.233-3.247a2.576,2.576,0,0,1,1.934-.973,2.4,2.4,0,0,0,.938-.336,2.216,2.216,0,0,0,.773-.705,3.6,3.6,0,0,0,.569-1.894s5.374-1.57,6.825,0a4.018,4.018,0,0,1,.654.955,7.961,7.961,0,0,1,.683,3.464s.273,1.706.717,3.657S707.449,838.926,707.449,838.926Z" transform="translate(840.275 1987.405)" fill="#2d293d"/>
    <path id="Path_372" data-name="Path 372" d="M749.56,834.724l-4.891-1.74c-1.354-1.092-.921-2.337-.239-3.242a2.571,2.571,0,0,1,1.939-.978,1.775,1.775,0,0,0,.569-.148,2.885,2.885,0,0,0,.375-.188,3.1,3.1,0,0,0,1.336-2.6s5.369-1.575,6.825,0a3.8,3.8,0,0,1,.512.7,7.815,7.815,0,0,1,.825,3.719s.273,1.706.717,3.657S749.56,834.724,749.56,834.724Z" transform="translate(822.113 1989.218)" fill="#2d293d"/>
    <path id="Path_373" data-name="Path 373" d="M716.619,830.03a4.012,4.012,0,0,1,.654.956h0l-8.053.933a3.6,3.6,0,0,0,.569-1.894S715.152,828.46,716.619,830.03Z" transform="translate(837.02 1987.406)" opacity="0.1"/>
    <path id="Path_374" data-name="Path 374" d="M758.375,826.48v1.507c-1.251,2.064-7.308,1.615-9.065.569a2.879,2.879,0,0,0,.375-.188,3.1,3.1,0,0,0,1.336-2.6s5.369-1.575,6.825,0A3.805,3.805,0,0,1,758.375,826.48Z" transform="translate(819.73 1989.244)" opacity="0.1"/>
    <path id="Path_375" data-name="Path 375" d="M735.917,755.481a13.435,13.435,0,0,0-.961,2.053v5.408c-1.365,2.275-8.485,1.507-9.441.273s-1.985-4.447-.893-4.993,1.985-3.287,1.985-3.287-1.137.273-3.008-1.917-1.3-7.046-.956-8.212a24.342,24.342,0,0,0,0-5.062s.068-2.735-.478-3.628a45.227,45.227,0,0,1-1.706-5.954,4.042,4.042,0,0,0-.955-2.6c-.955-.893-1.575-4.379-1.575-4.379a4.488,4.488,0,0,1-.682-2.94,5.985,5.985,0,0,0-1.166-3.56l-2.326-7.393-2.19-5.545-1.228,3.213s-.347,7.53-.068,9.1.682,5.744.682,5.744-1.371,2.741-.751,5.067.409,7.319.409,7.319.614,10.333.068,11.158a6.6,6.6,0,0,0-.478,2.844s2.8,6.023,1.911,6.825-.614,3.082-.614,3.082,1.917,0,1.1.819-1.439,5.118-1.439,5.118l-8.286,1.047a17.521,17.521,0,0,1-1.854-3.492c-1.092-2.531.2-2.275,1.308-2.531s.4-.955-.9-1.78-.569-2.667-.569-2.667,1.985-3.355,1.3-3.628-.756-4.993-.756-4.993-1.365-5.613-1.024-7.115-1.1-5.118-1.1-5.118l-.478-4.311a11.852,11.852,0,0,1-1.479-8.155v-6.66s-1.917-12.864-2.2-19.336c-.171-4.163-.125-9.844-.068-13.393.034-1.985.068-3.3.068-3.3L724.7,675.52a24.507,24.507,0,0,0,.54,4.391c.3,1.621.774,3.725,1.513,6.352a28.891,28.891,0,0,1,.825,13.137l-.273,9.509s2.6,6.364,2.053,8.531a18.064,18.064,0,0,0-.569,3.981s5.818,13.894,5.2,17.931,1.922,10.373,1.922,10.373S736.6,754.275,735.917,755.481Z" transform="translate(843.149 2053.743)" fill="#464353"/>
    <path id="Path_376" data-name="Path 376" d="M737.22,752.53l8.974-1.2S741.121,756.528,737.22,752.53Z" transform="translate(824.944 2021.047)" opacity="0.05"/>
    <path id="Path_377" data-name="Path 377" d="M749.508,735.87s.313,3.179-1.638,4.379C747.87,740.249,751.356,739.7,749.508,735.87Z" transform="translate(820.351 2027.715)" opacity="0.1"/>
    <path id="Path_378" data-name="Path 378" d="M741.732,718.06s-7.518,6.193-10.237,5.687S741.732,718.06,741.732,718.06Z" transform="translate(827.574 2035.396)" opacity="0.1"/>
    <path id="Path_379" data-name="Path 379" d="M713.137,758.55s-5.687,1.3-5.881,3.594S713.137,758.55,713.137,758.55Z" transform="translate(837.869 2017.934)" opacity="0.1"/>
    <path id="Path_380" data-name="Path 380" d="M715.117,808.72s-8.07,1.507-5.778,2.536A39.135,39.135,0,0,0,715.4,813.1S717.995,813.236,715.117,808.72Z" transform="translate(837.145 1996.295)" opacity="0.05"/>
    <g id="Group_45" data-name="Group 45" transform="translate(1538.128 2732.084)" opacity="0.05">
      <path id="Path_381" data-name="Path 381" d="M706,815.112a1.6,1.6,0,0,1-.739-1.172l-.08.148s-.756,1.843.569,2.667c.148.091.29.188.421.279.239-.046.5-.08.745-.142C707.992,816.641,707.3,815.953,706,815.112Z" transform="translate(-699.272 -738.04)"/>
      <path id="Path_382" data-name="Path 382" d="M724.779,814.01c.222-.2.21-.734.08-1.41a3.816,3.816,0,0,0-.461,1.985A1.519,1.519,0,0,1,724.779,814.01Z" transform="translate(-707.652 -737.462)"/>
      <path id="Path_383" data-name="Path 383" d="M722.449,755.22a9.419,9.419,0,0,0-.569,2.514,9.939,9.939,0,0,1,.626-1.706A5.083,5.083,0,0,0,722.449,755.22Z" transform="translate(-706.568 -712.715)"/>
      <path id="Path_384" data-name="Path 384" d="M755.278,748.331a3.252,3.252,0,0,0,.074-.751c-.1.512-.171.99-.222,1.4C755.176,748.769,755.221,748.552,755.278,748.331Z" transform="translate(-720.909 -709.42)"/>
      <path id="Path_385" data-name="Path 385" d="M722.4,796.849a4.307,4.307,0,0,0,.2-1.518,5.011,5.011,0,0,0-.392,1.917A1.839,1.839,0,0,1,722.4,796.849Z" transform="translate(-706.71 -730.014)"/>
      <path id="Path_386" data-name="Path 386" d="M716.605,820.68a27.365,27.365,0,0,0-.938,4.2l-8.275.961a17.14,17.14,0,0,1-1.854-3.492,6.067,6.067,0,0,1-.233-.6c-.495.228-.694.739-.04,2.275a16.937,16.937,0,0,0,1.854,3.486l8.269-.961s.62-4.311,1.439-5.118C717.231,820.993,716.975,820.788,716.605,820.68Z" transform="translate(-699.223 -740.947)"/>
      <path id="Path_387" data-name="Path 387" d="M701.407,747.923s.068,4.726.751,5h0c.347-.779.569-1.518.267-1.644-.682-.273-.751-4.993-.751-4.993s-1.371-5.613-1.024-7.12-1.1-5.118-1.1-5.118l-.478-4.311a11.875,11.875,0,0,1-1.507-8.144v-6.648s-1.917-12.864-2.189-19.365c-.176-4.163-.125-9.844-.068-13.393V680.48h-.233s-.034,1.314-.068,3.3c-.057,3.543-.108,9.23.068,13.393.273,6.5,2.19,19.365,2.19,19.365v6.637a11.835,11.835,0,0,0,1.541,8.212l.478,4.311s1.439,3.623,1.092,5.118S701.407,747.923,701.407,747.923Z" transform="translate(-694.956 -680.48)"/>
      <path id="Path_388" data-name="Path 388" d="M747.891,824.043a7.96,7.96,0,0,1-1.308-3.253c-.847.762.125,3.725,1.035,4.9s8.076,1.985,9.446-.279v-1.3C755.211,825.943,748.8,825.209,747.891,824.043Z" transform="translate(-717.082 -740.994)"/>
      <path id="Path_389" data-name="Path 389" d="M766.7,812.863a13.682,13.682,0,0,0-.955,2.053v.961c.154-.353.375-.819.682-1.371a4.146,4.146,0,0,0,.3-1.706Z" transform="translate(-725.484 -737.548)"/>
      <path id="Path_390" data-name="Path 390" d="M746.9,807.142a13.179,13.179,0,0,0,.677-1.626s-1.137.273-3.014-1.917c-1.342-1.592-1.416-4.6-1.228-6.568-.341,1.166-.893,6.023.955,8.212A4.824,4.824,0,0,0,746.9,807.142Z" transform="translate(-715.67 -730.747)"/>
      <path id="Path_391" data-name="Path 391" d="M734.435,759.609a37.574,37.574,0,0,1,.136,4.055c.046-.267.1-.483.137-.637.347-1.137,0-5.062,0-5.062s.068-2.741-.478-3.628a44.971,44.971,0,0,1-1.706-5.954,4.042,4.042,0,0,0-.955-2.6c-.955-.893-1.575-4.379-1.575-4.379a4.487,4.487,0,0,1-.688-2.94,6,6,0,0,0-1.137-3.56l-2.326-7.393L723.624,722l-1.234,3.213s0,.4-.04,1.041l1-2.61,2.19,5.539,2.326,7.393A5.853,5.853,0,0,1,729,740.13a4.5,4.5,0,0,0,.711,2.912s.614,3.486,1.57,4.379a4.061,4.061,0,0,1,.961,2.6s1.137,5.062,1.706,5.954S734.435,759.609,734.435,759.609Z" transform="translate(-706.771 -698.387)"/>
    </g>
    <path id="Path_392" data-name="Path 392" d="M748.593,561.9l-.512,2.5.028,1.137v.819l-2.844.3-.318-.569h0a24.194,24.194,0,0,0-2.218-3.583c-.529-.444-1.467-7.393-.341-6.978a2.98,2.98,0,0,1,1.592,1.439S749.6,557.557,748.593,561.9Z" transform="translate(822.944 2105.503)" fill="#ffcdd3"/>
    <path id="Path_393" data-name="Path 393" d="M750.492,573.683l-2.844.3-.319-.569h0a2.514,2.514,0,0,1,3.151-.517Z" transform="translate(820.584 2098.151)" opacity="0.1"/>
    <path id="Path_394" data-name="Path 394" d="M751.075,575.225l-3.759.876-.08-.569-.216-1.507a2.588,2.588,0,0,1,3.646-.5l.188.768Z" transform="translate(820.717 2097.964)" fill="#dce6f2"/>
    <path id="Path_395" data-name="Path 395" d="M640,558.128l-4.015,2.161-.364-.762c-.387-.8-.955-2.008-1.137-2.44-.239-.665-1.917-1.507-1.917-1.507-4.208-4.021.8-7.473.8-7.473,2.656-5.34,5.613,1.808,5.613,1.808s.409,3.771.12,4.021-.29,1.285-.29,1.285a15.624,15.624,0,0,1,.972,2.275C639.934,557.9,640,558.128,640,558.128Z" transform="translate(870.807 2109.549)" fill="#ffcdd3"/>
    <path id="Path_396" data-name="Path 396" d="M643.589,566.749l-4.015,2.161-.364-.762c.569-.472,2.576-2.1,3.236-2.03a4.724,4.724,0,0,0,.955,0C643.526,566.516,643.589,566.749,643.589,566.749Z" transform="translate(867.215 2100.928)" opacity="0.1"/>
    <path id="Path_397" data-name="Path 397" d="M644.089,568.174l-4.516,2.224-.091-.972-.062-.665s2.616-2.246,3.412-2.161a4.2,4.2,0,0,0,1.183,0l.051.813Z" transform="translate(867.124 2100.721)" fill="#dce6f2"/>
    <path id="Path_398" data-name="Path 398" d="M721.957,584.354s-19.694,2.224-16.015,1.029a4.941,4.941,0,0,0,3.8-4.271,10.4,10.4,0,0,0-.734-4.55,19.769,19.769,0,0,0-1.763-3.56s15.054-8.281,12.045-.751a11.8,11.8,0,0,0-.853,3.566,10.054,10.054,0,0,0,.381,3.606A10.754,10.754,0,0,0,721.957,584.354Z" transform="translate(838.631 2099.646)" fill="#ffcdd3"/>
    <path id="Path_399" data-name="Path 399" d="M720.625,572.247a11.805,11.805,0,0,0-.853,3.566c-1.422,1.189-2.974,1.137-4.971,1.137-1.535,0-3.236.375-4.459-.364a19.771,19.771,0,0,0-1.763-3.56S723.634,564.717,720.625,572.247Z" transform="translate(837.296 2099.645)" opacity="0.1"/>
    <ellipse id="Ellipse_56" data-name="Ellipse 56" cx="8.144" cy="8.144" rx="8.144" ry="8.144" transform="translate(1543.687 2660.808)" fill="#ffcdd3"/>
    <path id="Path_400" data-name="Path 400" d="M721.957,591.544s-19.694,2.224-16.015,1.029a4.941,4.941,0,0,0,3.8-4.271,10.688,10.688,0,0,1,4.214-2.235,5.875,5.875,0,0,1,3.566-.057,4.75,4.75,0,0,1,1.3.569A10.753,10.753,0,0,0,721.957,591.544Z" transform="translate(838.631 2092.455)" opacity="0.1"/>
    <path id="Path_401" data-name="Path 401" d="M751.239,576.112l-3.759.876-.08-.569a3.321,3.321,0,0,1,3.617-1.24Z" transform="translate(820.553 2097.076)" opacity="0.1"/>
    <path id="Path_402" data-name="Path 402" d="M644.137,568.792l-4.516,2.224-.091-.973a33.231,33.231,0,0,1,4.55-2.013Z" transform="translate(867.077 2100.103)" opacity="0.1"/>
    <path id="Path_403" data-name="Path 403" d="M725.27,679.86c-7.626,1.2-18.483,2.77-20.206,2.246-1.427-.438-5.989-.392-9.964-.256.034-1.985.068-3.3.068-3.3l29.573-3.077A24.492,24.492,0,0,0,725.27,679.86Z" transform="translate(843.11 2053.765)" opacity="0.1"/>
    <path id="Path_404" data-name="Path 404" d="M708,631.89s-25.114,4.311-27.81,3.486-16.532.074-16.532.074c-6.227,4.169-3.623-1.985-3.623-1.985a14.84,14.84,0,0,1,.2-5.818,35.623,35.623,0,0,0,1.024-5.818s-.136-4.106.614-5.062,1.644-7.8,1.644-7.8.688-4.652.62-5.687.2-3.9.2-3.9l.887-4.794c-5.118-.682-20.735-10.265-20.735-10.265-.751-3.213-6.569-10.743-6.569-10.743a7.921,7.921,0,0,0-.478-1.848c-.409-1.092,5.75-3.281,5.75-3.281s4.584,5.613,5.539,7.115a31.319,31.319,0,0,0,4.243,4.311,3.315,3.315,0,0,1,1.507.2h.08a12.136,12.136,0,0,1,3.06,1.757,5.932,5.932,0,0,1,4.174,1.575s2.809-.409,3.287.068,2.844,0,2.844,0,2.4-5.061,3.981-3.594,8.252,1.4,8.252,1.4c.893-1.183,3.054-2.03,4.413-2.468a5.875,5.875,0,0,1,3.566-.057,4.414,4.414,0,0,1,1.41.682l4.049,3.981s1.137-1.507,1.029-1.848,1.371-.614,1.371-.614,1.985-.614,2.735-.825,1.445.614,1.5.682a8.011,8.011,0,0,1-.341-3.008,3.412,3.412,0,0,0-.819-2.462c2.417-5.846,7.825-.9,7.825-.9s.614,3.213.068,4.447.569,3.833.409,4.516.273,1.848.273,3.145a18.708,18.708,0,0,1-1.092,4.862c-.415,1.092-3.7,3.554-3.7,3.554s-.2,3.9-1.644,6.159-.569,9.992-.569,9.992,1.365,6.023,3.077,7.962S708,631.89,708,631.89Z" transform="translate(867.98 2099.921)" fill="#3f3d56"/>
    <path id="Path_405" data-name="Path 405" d="M694.554,597.687s-.751-2.275-1.439-2.468a16.185,16.185,0,0,1-1.985-.887l.444-.842s2.571.705,2.98,1.456S694.554,597.687,694.554,597.687Z" transform="translate(844.822 2089.122)" opacity="0.1"/>
    <path id="Path_406" data-name="Path 406" d="M668.282,590.726c-.136.688-6.222,1.3-6.222,1.3l3.077-3.088h0l.08.028h0A12.136,12.136,0,0,1,668.282,590.726Z" transform="translate(857.36 2091.084)" opacity="0.1"/>
    <ellipse id="Ellipse_57" data-name="Ellipse 57" cx="0.546" cy="0.546" rx="0.546" ry="0.546" transform="translate(1507.454 2671.875)" fill="#575988"/>
    <ellipse id="Ellipse_58" data-name="Ellipse 58" cx="0.546" cy="0.546" rx="0.546" ry="0.546" transform="translate(1508.154 2672.972)" fill="#575988"/>
    <ellipse id="Ellipse_59" data-name="Ellipse 59" cx="0.546" cy="0.546" rx="0.546" ry="0.546" transform="translate(1508.842 2673.979)" fill="#575988"/>
    <ellipse id="Ellipse_60" data-name="Ellipse 60" cx="0.546" cy="0.546" rx="0.546" ry="0.546" transform="translate(1509.558 2675.076)" fill="#575988"/>
    <ellipse id="Ellipse_61" data-name="Ellipse 61" cx="0.444" cy="0.444" rx="0.444" ry="0.444" transform="translate(1574.164 2675.116)" fill="#575988"/>
    <ellipse id="Ellipse_62" data-name="Ellipse 62" cx="0.444" cy="0.444" rx="0.444" ry="0.444" transform="translate(1574.232 2676.129)" fill="#575988"/>
    <ellipse id="Ellipse_63" data-name="Ellipse 63" cx="0.444" cy="0.444" rx="0.444" ry="0.444" transform="translate(1574.289 2677.135)" fill="#575988"/>
    <path id="Path_407" data-name="Path 407" d="M697.21,633.47c-.063-.08,15.355,19.4,27.338,8.144C724.548,641.614,705.621,644.179,697.21,633.47Z" transform="translate(842.2 2071.879)" opacity="0.1"/>
    <path id="Path_408" data-name="Path 408" d="M681.63,651.28s9.23.25,10.2,2.906v2.764a1.769,1.769,0,0,1-1.706,0c-.933-.5-6.512-3.338-8.479-1.973Z" transform="translate(848.919 2064.198)" opacity="0.1"/>
    <path id="Path_409" data-name="Path 409" d="M681.93,651.28s8.826.239,9.753,2.77v2.639a1.706,1.706,0,0,1-1.644,0c-.893-.483-6.256-3.185-8.11-1.882Z" transform="translate(848.79 2064.198)" fill="#3f3d56"/>
    <path id="Path_410" data-name="Path 410" d="M690.49,616a29.724,29.724,0,0,0,3.577,6.136,23.967,23.967,0,0,0,5.607,5.414S690.644,617.291,690.49,616Z" transform="translate(845.098 2079.414)" opacity="0.1"/>
    <path id="Path_411" data-name="Path 411" d="M685.18,597.18s1.541,6.648,5.505,8.906Z" transform="translate(847.388 2087.531)" opacity="0.1"/>
    <path id="Path_412" data-name="Path 412" d="M680.9,598.358c-.04-.125-1.37,5.255,5.118,8.235C686.013,606.593,683.272,605.661,680.9,598.358Z" transform="translate(849.296 2087.023)" opacity="0.1"/>
    <path id="Path_413" data-name="Path 413" d="M751.9,590.517a47.624,47.624,0,0,1,4.095,3.077S753.849,590.38,751.9,590.517Z" transform="translate(818.614 2090.406)" opacity="0.1"/>
    <path id="Path_414" data-name="Path 414" d="M710.046,568.5a1.735,1.735,0,0,0,.631,1.1,1.779,1.779,0,0,0,.768.171c2.485.154,5.067.262,7.393-.694a2.752,2.752,0,0,0,1.137-.745,4.429,4.429,0,0,0,.6-1.791,27.919,27.919,0,0,1,1.507-3.458,11.62,11.62,0,0,0,.8-6.21,4.157,4.157,0,0,0-.62-1.82c-.66-.938-1.86-1.319-2.73-2.07s-1.433-1.894-2.446-2.457a4.754,4.754,0,0,0-3.071-.273,16.224,16.224,0,0,0-5.733,2.155,2.839,2.839,0,0,1-1.917.654,2.633,2.633,0,0,1-1.41-1.081,7.573,7.573,0,0,0-.609,3.543,1.048,1.048,0,0,1-.381,1.1,2.07,2.07,0,0,0-.393,2.554c.267.313.671.483.927.8.461.569.3,1.393.29,2.127a1.138,1.138,0,0,0,.182.722,1.058,1.058,0,0,0,1.007.239,2.751,2.751,0,0,1,1.069-.1,1.8,1.8,0,0,1,.933.717A13,13,0,0,1,710.046,568.5Z" transform="translate(839.584 2107.828)" fill="#2d293d"/>
    <g id="Group_46" data-name="Group 46" transform="translate(1542.803 2659.727)" opacity="0.1">
      <path id="Path_415" data-name="Path 415" d="M720.137,572.864A2.69,2.69,0,0,1,719,573.6c-2.275.961-4.88.847-7.359.694a1.673,1.673,0,0,1-.768-.171,1.707,1.707,0,0,1-.637-1.1,12.693,12.693,0,0,0-2.076-4.817,1.775,1.775,0,0,0-.933-.717,2.754,2.754,0,0,0-1.069.1,1.058,1.058,0,0,1-1.007-.239,1.1,1.1,0,0,1-.176-.722c0-.734.165-1.558-.3-2.127-.256-.318-.66-.489-.927-.8a1.6,1.6,0,0,1-.154-1.638,1.873,1.873,0,0,0-.12,2.184c.267.313.671.483.927.8.461.569.3,1.393.29,2.127a1.137,1.137,0,0,0,.182.722,1.052,1.052,0,0,0,1.007.239,2.752,2.752,0,0,1,1.069-.1,1.8,1.8,0,0,1,.933.717,12.916,12.916,0,0,1,2.076,4.817,1.735,1.735,0,0,0,.631,1.1,1.779,1.779,0,0,0,.768.171c2.485.154,5.067.262,7.393-.694a2.791,2.791,0,0,0,1.138-.745,2.166,2.166,0,0,0,.353-.66A.407.407,0,0,1,720.137,572.864Z" transform="translate(-703.176 -557.054)"/>
      <path id="Path_416" data-name="Path 416" d="M705.148,557.2a1.137,1.137,0,0,0,.25-.415,1.708,1.708,0,0,0,0-.535,7.507,7.507,0,0,1,.381-2.946l-.046-.051a7.506,7.506,0,0,0-.609,3.543A2.388,2.388,0,0,1,705.148,557.2Z" transform="translate(-704.009 -553.25)"/>
    </g>
    <path id="Path_417" data-name="Path 417" d="M712.62,590.982s10.174,1.348,11.09-.182" transform="translate(835.554 2090.282)" opacity="0.1"/>
    <path id="Path_418" data-name="Path 418" d="M747.4,583.72s5.647,0,6.893,2.127" transform="translate(820.553 2093.336)" opacity="0.1"/>
  </g>
</svg>
