<svg xmlns="http://www.w3.org/2000/svg" width="117.437" height="98.846" viewBox="0 0 117.437 98.846">
  <g id="blockchain" transform="translate(1 1.186)">
    <path id="Path_2391" data-name="Path 2391" d="M55.392,67.371l5.772,3.673L82.327,57.576V34.489L61.163,20.977,40,34.489v5.772" transform="translate(33.11 2.343)" fill="none" stroke="#fff" stroke-linecap="square" stroke-miterlimit="10" stroke-width="2"/>
    <line id="Line_20" data-name="Line 20" y2="23.613" transform="translate(57.718 72.644)" fill="none" stroke="#fff" stroke-miterlimit="10" stroke-width="2"/>
    <path id="Path_2392" data-name="Path 2392" d="M21,40,42.163,53.466,63.327,40" transform="translate(15.555 19.919)" fill="none" stroke="#fff" stroke-miterlimit="10" stroke-width="2"/>
    <line id="Line_21" data-name="Line 21" y2="23.089" transform="translate(57.718 73.385)" fill="none" stroke="#fff" stroke-miterlimit="10" stroke-width="2"/>
    <path id="Path_2393" data-name="Path 2393" d="M21,15.88,42.163,29.346,63.327,15.88" transform="translate(15.555 -2.366)" fill="none" stroke="#fff" stroke-miterlimit="10" stroke-width="2"/>
    <line id="Line_22" data-name="Line 22" y2="9.853" transform="translate(57.718 26.979)" fill="none" stroke="#fff" stroke-miterlimit="10" stroke-width="2"/>
    <path id="Path_2394" data-name="Path 2394" d="M44.327,28,23.163,41.466,2,28" transform="translate(-2 8.832)" fill="none" stroke="#fff" stroke-miterlimit="10" stroke-width="2"/>
    <line id="Line_23" data-name="Line 23" y2="23.089" transform="translate(21.163 50.298)" fill="none" stroke="#fff" stroke-miterlimit="10" stroke-width="2"/>
    <path id="Path_2395" data-name="Path 2395" d="M40,28,61.163,41.466,82.327,28" transform="translate(33.11 8.832)" fill="none" stroke="#fff" stroke-miterlimit="10" stroke-width="2"/>
    <line id="Line_24" data-name="Line 24" y2="23.089" transform="translate(94.273 50.298)" fill="none" stroke="#fff" stroke-miterlimit="10" stroke-width="2"/>
    <path id="Path_2396" data-name="Path 2396" d="M63.327,30.3V22.37L42.163,8.856,21,22.37V30.3" transform="translate(15.555 -8.856)" fill="none" stroke="#fff" stroke-linecap="square" stroke-miterlimit="10" stroke-width="2"/>
    <path id="Path_2397" data-name="Path 2397" d="M44.325,42.185l0-7.7L23.163,20.977,2,34.489V57.576L23.163,71.044l5.772-3.673" transform="translate(-2 2.343)" fill="none" stroke="#fff" stroke-linecap="square" stroke-miterlimit="10" stroke-width="2"/>
    <path id="Path_2398" data-name="Path 2398" d="M63.327,46.49,42.163,32.976,21,46.49V69.577L42.163,83.045,63.327,69.577Z" transform="translate(15.555 13.43)" fill="none" stroke="#fff" stroke-miterlimit="10" stroke-width="2"/>
  </g>
</svg>
