<svg xmlns="http://www.w3.org/2000/svg" width="35.069" height="29.658" viewBox="0 0 35.069 29.658">
  <g id="blockchain" transform="translate(0.5 0.593)">
    <path id="Path_2391" data-name="Path 2391" d="M44.543,34.669l1.7,1.084,6.246-3.975V24.965l-6.246-3.988L40,24.965v1.7" transform="translate(-18.423 -14.094)" fill="none" stroke="#fff" stroke-linecap="square" stroke-miterlimit="10" stroke-width="1"/>
    <line id="Line_20" data-name="Line 20" y2="6.969" transform="translate(17.035 21.44)" fill="none" stroke="#fff" stroke-miterlimit="10" stroke-width="1"/>
    <path id="Path_2392" data-name="Path 2392" d="M21,40l6.246,3.974L33.492,40" transform="translate(-10.211 -22.316)" fill="none" stroke="#fff" stroke-miterlimit="10" stroke-width="1"/>
    <line id="Line_21" data-name="Line 21" y2="6.814" transform="translate(17.035 21.658)" fill="none" stroke="#fff" stroke-miterlimit="10" stroke-width="1"/>
    <path id="Path_2393" data-name="Path 2393" d="M21,15.88l6.246,3.974,6.246-3.974" transform="translate(-10.211 -11.892)" fill="none" stroke="#fff" stroke-miterlimit="10" stroke-width="1"/>
    <line id="Line_22" data-name="Line 22" y2="2.908" transform="translate(17.035 7.963)" fill="none" stroke="#fff" stroke-miterlimit="10" stroke-width="1"/>
    <path id="Path_2394" data-name="Path 2394" d="M14.492,28,8.246,31.974,2,28" transform="translate(-2 -17.13)" fill="none" stroke="#fff" stroke-miterlimit="10" stroke-width="1"/>
    <line id="Line_23" data-name="Line 23" y2="6.814" transform="translate(6.246 14.844)" fill="none" stroke="#fff" stroke-miterlimit="10" stroke-width="1"/>
    <path id="Path_2395" data-name="Path 2395" d="M40,28l6.246,3.974L52.492,28" transform="translate(-18.423 -17.13)" fill="none" stroke="#fff" stroke-miterlimit="10" stroke-width="1"/>
    <line id="Line_24" data-name="Line 24" y2="6.814" transform="translate(27.823 14.844)" fill="none" stroke="#fff" stroke-miterlimit="10" stroke-width="1"/>
    <path id="Path_2396" data-name="Path 2396" d="M33.492,15.184V12.844L27.246,8.856,21,12.844v2.339" transform="translate(-10.211 -8.856)" fill="none" stroke="#fff" stroke-linecap="square" stroke-miterlimit="10" stroke-width="1"/>
    <path id="Path_2397" data-name="Path 2397" d="M14.491,27.236V24.965L8.246,20.977,2,24.965v6.814l6.246,3.975,1.7-1.084" transform="translate(-2 -14.094)" fill="none" stroke="#fff" stroke-linecap="square" stroke-miterlimit="10" stroke-width="1"/>
    <path id="Path_2398" data-name="Path 2398" d="M33.492,36.964l-6.246-3.988L21,36.964v6.814l6.246,3.975,6.246-3.975Z" transform="translate(-10.211 -19.28)" fill="none" stroke="#fff" stroke-miterlimit="10" stroke-width="1"/>
  </g>
</svg>
