<svg xmlns="http://www.w3.org/2000/svg" width="201.558" height="144.912" viewBox="0 0 201.558 144.912">
  <path id="Ellipse_103" data-name="Ellipse 103" d="M178.485,37.4c2.971,5.624,3.417,11.937,1.614,18.558-1.838,6.749-6.008,13.794-12.189,20.71a113.478,113.478,0,0,1-24.548,20.08,170.186,170.186,0,0,1-34.5,16.248,170.186,170.186,0,0,1-37.189,8.437,113.478,113.478,0,0,1-31.707-.71c-9.129-1.644-16.752-4.629-22.355-8.816-5.5-4.107-9.033-9.357-10.154-15.618-1.1-6.128.222-12.654,3.487-19.2,3.207-6.425,8.3-12.892,14.872-19.052A127.84,127.84,0,0,1,49.3,40.924a177.638,177.638,0,0,1,62.136-21.4,127.841,127.841,0,0,1,29.039-.967c8.969.811,16.966,2.769,23.449,5.858C170.52,27.563,175.577,31.893,178.485,37.4Z" fill="#e53167" opacity="0.5"/>
</svg>
