<svg xmlns="http://www.w3.org/2000/svg" width="148.106" height="196.911" viewBox="0 0 148.106 196.911">
  <path id="Ellipse_99" data-name="Ellipse 99" d="M141.121,132.613a52.767,52.767,0,0,1-7.4,22.077A39.839,39.839,0,0,1,118.5,168.931a43.625,43.625,0,0,1-21.555,4.791,64.477,64.477,0,0,1-26.053-6.677A95.024,95.024,0,0,1,45.337,148.85a113.5,113.5,0,0,1-19.65-26.012A104.056,104.056,0,0,1,14.627,93a74.275,74.275,0,0,1-.262-29.29A47.641,47.641,0,0,1,25.08,41.359,39.237,39.237,0,0,1,43.525,29.716a49.347,49.347,0,0,1,22.951-.864,73.991,73.991,0,0,1,24.752,9.792,101.357,101.357,0,0,1,22.237,18.485,114.117,114.117,0,0,1,16.419,23.414,104.42,104.42,0,0,1,9.653,25.9A78.685,78.685,0,0,1,141.121,132.613Z" fill="#e53167" opacity="0.11"/>
</svg>
