<svg id="ericsson" xmlns="http://www.w3.org/2000/svg" width="14.342" height="17.53" viewBox="0 0 14.342 17.53">
  <path id="Path_507" data-name="Path 507" d="M7.439,4.46A1.52,1.52,0,0,0,8.724,7.214l8.263-3.853A1.52,1.52,0,0,0,15.7.607Z" transform="translate(-3.522 -0.464)" fill="#fff"/>
  <path id="Path_508" data-name="Path 508" d="M4.7,13.479a1.52,1.52,0,0,1,.735-2.019L13.7,7.607a1.52,1.52,0,0,1,1.284,2.754L6.724,14.214A1.52,1.52,0,0,1,4.7,13.479Z" transform="translate(-3.042 -2.145)" fill="#fff"/>
  <path id="Path_509" data-name="Path 509" d="M2.7,20.479a1.52,1.52,0,0,1,.735-2.019L11.7,14.607a1.52,1.52,0,0,1,1.284,2.754L4.724,21.214A1.52,1.52,0,0,1,2.7,20.479Z" transform="translate(-2.562 -3.827)" fill="#fff"/>
</svg>
