<svg xmlns="http://www.w3.org/2000/svg" width="40.948" height="40.917" viewBox="0 0 40.948 40.917">
  <g id="Icon_ionic-ios-rocket" data-name="Icon ionic-ios-rocket" transform="translate(0.503 0.53)">
    <path id="Path_1614" data-name="Path 1614" d="M43.074,3.913a.424.424,0,0,0-.317-.326c-5.219-1.276-17.277,3.271-23.81,9.8a28.238,28.238,0,0,0-3.175,3.751,11.815,11.815,0,0,0-5.746.719c-4.844,2.13-6.255,7.694-6.648,10.082a.859.859,0,0,0,.94,1l7.78-.854a17.3,17.3,0,0,0,.106,1.756,1.741,1.741,0,0,0,.508,1.065l3.012,3.012a1.741,1.741,0,0,0,1.065.508,17.263,17.263,0,0,0,1.746.106l-.854,7.77a.859.859,0,0,0,1,.94c2.389-.384,7.962-1.794,10.082-6.638a11.869,11.869,0,0,0,.729-5.727,28.284,28.284,0,0,0,3.76-3.175C39.812,21.181,44.331,9.391,43.074,3.913ZM27.418,19.252a4.1,4.1,0,1,1,5.794,0A4.093,4.093,0,0,1,27.418,19.252Z" transform="translate(-3.366 -3.372)" fill="none" stroke="#fff" stroke-width="1"/>
    <path id="Path_1615" data-name="Path 1615" d="M14.631,28h0a3.639,3.639,0,0,1-1.9.767,2.582,2.582,0,0,1-2.974-2.974,3.568,3.568,0,0,1,.758-1.89l.01-.01a.321.321,0,0,0-.269-.547A4.41,4.41,0,0,0,7.677,24.6c-1.727,1.727-1.89,8.135-1.89,8.135s6.418-.163,8.144-1.89a4.381,4.381,0,0,0,1.257-2.581A.328.328,0,0,0,14.631,28Z" transform="translate(-2.484 3.903)" fill="none" stroke="#fff" stroke-width="1"/>
  </g>
</svg>
