<svg xmlns="http://www.w3.org/2000/svg" width="14.061" height="16.322" viewBox="0 0 14.061 16.322">
  <path id="Icon_ionic-ios-git-network" data-name="Icon ionic-ios-git-network" d="M15.568,2.25a2.5,2.5,0,0,0-1.875,4.143,2.468,2.468,0,0,0,1.349.795V8.709l-3.761,1.957L7.523,8.709V7.187a2.495,2.495,0,1,0-2.405-.795,2.468,2.468,0,0,0,1.349.795V9.214a.247.247,0,0,0,.138.222l4.15,2.147v1.55a2.494,2.494,0,1,0,2.4.795,2.468,2.468,0,0,0-1.349-.795v-1.55l4.15-2.147a.247.247,0,0,0,.138-.222V7.187a2.5,2.5,0,0,0-.526-4.937ZM5.552,4.747A1.441,1.441,0,1,1,6.993,6.188,1.442,1.442,0,0,1,5.552,4.747Zm7.169,10.828a1.441,1.441,0,1,1-1.441-1.441A1.442,1.442,0,0,1,12.722,15.575Zm2.846-9.383A1.441,1.441,0,1,1,17.009,4.75,1.442,1.442,0,0,1,15.568,6.191Z" transform="translate(-4.25 -2)" fill="none" stroke="#fff" stroke-width="0.5"/>
</svg>
