<svg xmlns="http://www.w3.org/2000/svg" width="17.308" height="16.046" viewBox="0 0 17.308 16.046">
  <g id="Icon_ionic-ios-apps" data-name="Icon ionic-ios-apps" transform="translate(0.5 0.547)">
    <path id="Path_1616" data-name="Path 1616" d="M20.243,7.363,13.9,4.713a3.726,3.726,0,0,0-2.5,0L5.06,7.363c-.747.311-.747.821,0,1.133l6.284,2.628a3.916,3.916,0,0,0,2.615,0L20.243,8.5C20.991,8.185,20.991,7.675,20.243,7.363Z" transform="translate(-4.496 -4.496)" fill="none" stroke="#fff" stroke-width="1"/>
    <g id="Group_677" data-name="Group 677" transform="translate(0 6.299)">
      <path id="Path_1617" data-name="Path 1617" d="M11.344,24.908,7.107,23.137a.746.746,0,0,0-.565,0l-1.482.619c-.747.311-.747.821,0,1.133l6.284,2.628a3.916,3.916,0,0,0,2.615,0l6.284-2.628c.747-.311.747-.821,0-1.133l-1.482-.619a.746.746,0,0,0-.565,0L13.96,24.908A3.916,3.916,0,0,1,11.344,24.908Z" transform="translate(-4.496 -19.092)" fill="none" stroke="#fff" stroke-width="1"/>
      <path id="Path_1618" data-name="Path 1618" d="M20.241,16.491l-1.346-.561a.736.736,0,0,0-.56,0l-4.585,1.9a4.074,4.074,0,0,1-2.2,0L6.96,15.93a.736.736,0,0,0-.56,0l-1.346.561c-.747.311-.747.821,0,1.133l6.284,2.628a3.916,3.916,0,0,0,2.615,0l6.284-2.628C20.988,17.312,20.988,16.8,20.241,16.491Z" transform="translate(-4.493 -15.875)" fill="none" stroke="#fff" stroke-width="1"/>
    </g>
  </g>
</svg>
