<svg xmlns="http://www.w3.org/2000/svg" width="22.179" height="14.589" viewBox="0 0 22.179 14.589">
  <g id="Icon_ionic-ios-people" data-name="Icon ionic-ios-people" transform="translate(0.25 0.25)">
    <path id="Path_1619" data-name="Path 1619" d="M19.422,18.588c-.541-.193-1.424-.2-1.815-.352a2.565,2.565,0,0,1-.84-.391,5.191,5.191,0,0,1-.14-1.376,2.223,2.223,0,0,0,.478-.676,7.512,7.512,0,0,0,.232-1.328s.319.135.444-.5c.106-.55.309-.84.256-1.246s-.28-.309-.28-.309a3.615,3.615,0,0,0,.28-1.806,2.889,2.889,0,0,0-3.119-2.853A2.9,2.9,0,0,0,11.793,10.6a3.669,3.669,0,0,0,.275,1.806s-.227-.1-.28.309.145.7.256,1.246c.126.642.444.5.444.5a7.585,7.585,0,0,0,.232,1.328,2.223,2.223,0,0,0,.478.676,5.191,5.191,0,0,1-.14,1.376,2.468,2.468,0,0,1-.84.386c-.386.15-1.27.169-1.815.362a3.407,3.407,0,0,0-2.211,3.245H21.628A3.4,3.4,0,0,0,19.422,18.588Z" transform="translate(-4.087 -7.748)" fill="none" stroke="#fff" stroke-width="0.5"/>
    <path id="Path_1620" data-name="Path 1620" d="M7.453,17.32a3.278,3.278,0,0,0,1.613-.449c-.748-1.135-.343-2.458-.5-3.694a2.037,2.037,0,0,0-2.255-1.97H6.295a2.043,2.043,0,0,0-2.235,1.97c-.155,1.231.275,2.7-.492,3.694a3.033,3.033,0,0,0,1.617.4h0a2.445,2.445,0,0,1-.048.811,1.219,1.219,0,0,1-.579.266,11.2,11.2,0,0,0-1.251.348,2.033,2.033,0,0,0-1.091,1.8H6.092a3.469,3.469,0,0,1,1.545-1.439A3.242,3.242,0,0,1,8.829,18.8s.183-.29-.42-.4a4.116,4.116,0,0,1-.927-.323C7.391,17.972,7.453,17.32,7.453,17.32Z" transform="translate(-2.215 -8.832)" fill="none" stroke="#fff" stroke-width="0.5"/>
    <path id="Path_1621" data-name="Path 1621" d="M25.42,17.32a3.278,3.278,0,0,1-1.613-.449c.748-1.135.343-2.458.5-3.694a2.037,2.037,0,0,1,2.255-1.97h.019a2.043,2.043,0,0,1,2.235,1.97c.155,1.231-.275,2.7.492,3.694a3.033,3.033,0,0,1-1.617.4h0a2.445,2.445,0,0,0,.048.811,1.219,1.219,0,0,0,.579.266,11.2,11.2,0,0,1,1.25.348,2.033,2.033,0,0,1,1.091,1.8H26.782a3.469,3.469,0,0,0-1.545-1.439,3.242,3.242,0,0,0-1.193-.251s-.183-.29.42-.4a4.116,4.116,0,0,0,.927-.323C25.483,17.972,25.42,17.32,25.42,17.32Z" transform="translate(-8.98 -8.832)" fill="none" stroke="#fff" stroke-width="0.5"/>
  </g>
</svg>
