<svg xmlns="http://www.w3.org/2000/svg" width="19.868" height="19.854" viewBox="0 0 19.868 19.854">
  <g id="Icon_ionic-ios-rocket" data-name="Icon ionic-ios-rocket" transform="translate(19.448 11.143)">
    <path id="Path_1614" data-name="Path 1614" d="M22.121,3.628a.2.2,0,0,0-.15-.154c-2.465-.6-8.16,1.545-11.246,4.631a13.338,13.338,0,0,0-1.5,1.772,5.581,5.581,0,0,0-2.714.34c-2.288,1.006-2.954,3.634-3.14,4.762a.406.406,0,0,0,.444.471l3.675-.4a8.168,8.168,0,0,0,.05.829.822.822,0,0,0,.24.5L9.2,17.8a.822.822,0,0,0,.5.24,8.155,8.155,0,0,0,.825.05l-.4,3.67a.406.406,0,0,0,.471.444c1.128-.181,3.761-.847,4.762-3.135a5.606,5.606,0,0,0,.344-2.7,13.359,13.359,0,0,0,1.776-1.5C20.58,11.783,22.714,6.215,22.121,3.628Zm-7.395,7.245a1.935,1.935,0,1,1,2.737,0A1.933,1.933,0,0,1,14.726,10.873Z" transform="translate(-22.312 -14.002)" fill="none" stroke="#fff" stroke-width="1"/>
    <path id="Path_1615" data-name="Path 1615" d="M8.059,24.538h0a.935.935,0,0,1-.488.2.663.663,0,0,1-.764-.764A.917.917,0,0,1,7,23.485l0,0a.082.082,0,0,0-.069-.14,1.133,1.133,0,0,0-.663.323c-.444.444-.486,2.09-.486,2.09s1.649-.042,2.093-.486a1.126,1.126,0,0,0,.323-.663A.084.084,0,0,0,8.059,24.538Z" transform="translate(-23.045 -19.32)" fill="none" stroke="#fff" stroke-width="1"/>
  </g>
</svg>
