<svg xmlns="http://www.w3.org/2000/svg" width="38.99" height="36.046" viewBox="0 0 38.99 36.046">
  <g id="Icon_ionic-ios-apps" data-name="Icon ionic-ios-apps" transform="translate(0.5 0.608)">
    <path id="Path_1616" data-name="Path 1616" d="M41.175,11.175,26.4,5a8.681,8.681,0,0,0-5.826,0L5.806,11.175c-1.741.725-1.741,1.913,0,2.639l14.638,6.121a9.122,9.122,0,0,0,6.093,0l14.638-6.121C42.916,13.088,42.916,11.9,41.175,11.175Z" transform="translate(-4.49 -4.496)" fill="none" stroke="#fff" stroke-width="1"/>
    <g id="Group_677" data-name="Group 677" transform="translate(0 14.675)">
      <path id="Path_1617" data-name="Path 1617" d="M20.444,27.337l-9.871-4.126a1.739,1.739,0,0,0-1.315,0L5.806,24.653c-1.741.725-1.741,1.913,0,2.639l14.638,6.121a9.122,9.122,0,0,0,6.093,0l14.638-6.121c1.741-.725,1.741-1.913,0-2.639l-3.452-1.442a1.739,1.739,0,0,0-1.315,0l-9.871,4.126A9.122,9.122,0,0,1,20.444,27.337Z" transform="translate(-4.49 -13.787)" fill="none" stroke="#fff" stroke-width="1"/>
      <path id="Path_1618" data-name="Path 1618" d="M41.178,17.31,38.042,16a1.713,1.713,0,0,0-1.306,0L26.055,20.438a9.49,9.49,0,0,1-5.133,0L10.239,16a1.713,1.713,0,0,0-1.306,0L5.8,17.31c-1.741.725-1.741,1.913,0,2.639L20.437,26.07a9.122,9.122,0,0,0,6.093,0l14.638-6.121C42.918,19.223,42.918,18.035,41.178,17.31Z" transform="translate(-4.493 -15.875)" fill="none" stroke="#fff" stroke-width="1"/>
    </g>
  </g>
</svg>
