<svg xmlns="http://www.w3.org/2000/svg" width="14.528" height="11.256" viewBox="0 0 14.528 11.256">
  <path id="Icon_simple-minutemailer" data-name="Icon simple-minutemailer" d="M3.368,4.055l2.088,2.26-1.473,2.9,3.111-.558,1.416,3.418,6.017-7.89Zm-.385,4.9.579-.476-.747.236L2.739,8.6l.309-.3-.4.163A4.123,4.123,0,0,0,1.291,15.31a4.094,4.094,0,0,1-.536-2.031A4.226,4.226,0,0,1,3.367,9.393l.191-.464-.454.2-.128-.173.007-.007ZM5.625,7.758,6.592,6.05l5.689-1.332Z" transform="translate(0 -4.055)" fill="#3f447c"/>
</svg>
