<svg xmlns="http://www.w3.org/2000/svg" width="11.012" height="11.026" viewBox="0 0 11.012 11.026">
  <path id="Icon_zocial-call" data-name="Icon zocial-call" d="M3.29,5.11A.811.811,0,0,1,3.5,4.67L5.149,3.018q.193-.165.289.055L6.773,5.578a.36.36,0,0,1-.069.427L6.1,6.611a.685.685,0,0,0-.193.427A2.1,2.1,0,0,0,6.333,8.1a9.052,9.052,0,0,0,.84,1.1l.427.44c.129.129.293.287.5.475a8.311,8.311,0,0,0,1,.743,2.233,2.233,0,0,0,1.094.461.6.6,0,0,0,.441-.179l.716-.716a.3.3,0,0,1,.413-.055l2.41,1.418a.2.2,0,0,1,.11.145.176.176,0,0,1-.055.158l-1.652,1.652a.809.809,0,0,1-.44.206,3.33,3.33,0,0,1-1.522-.186,6.884,6.884,0,0,1-1.569-.75q-.723-.468-1.342-.949t-.991-.826l-.358-.345q-.137-.137-.365-.379T5.19,9.564A13.826,13.826,0,0,1,4.213,8.18,8.071,8.071,0,0,1,3.5,6.645,3.265,3.265,0,0,1,3.29,5.11Z" transform="translate(-3.267 -2.947)" fill="#3f447c"/>
</svg>
