<svg xmlns="http://www.w3.org/2000/svg" width="51.789" height="34.007" viewBox="0 0 51.789 34.007">
  <g id="Icon_ionic-ios-people" data-name="Icon ionic-ios-people" transform="translate(0.5 0.5)">
    <path id="Path_1619" data-name="Path 1619" d="M34.5,33.143c-1.267-.452-3.337-.475-4.253-.826a6.009,6.009,0,0,1-1.968-.916c-.328-.4-.328-3.224-.328-3.224a5.208,5.208,0,0,0,1.12-1.584,17.6,17.6,0,0,0,.543-3.111s.747.317,1.041-1.176c.249-1.29.724-1.968.6-2.918s-.656-.724-.656-.724.656-.961.656-4.231c0-3.371-2.545-6.685-7.307-6.685s-7.319,3.326-7.319,6.685c0,3.269.645,4.231.645,4.231s-.532-.226-.656.724.339,1.629.6,2.918c.294,1.5,1.041,1.176,1.041,1.176a17.77,17.77,0,0,0,.543,3.111,5.208,5.208,0,0,0,1.12,1.584s0,2.828-.328,3.224a5.783,5.783,0,0,1-1.968.9c-.9.351-2.975.4-4.253.848a7.983,7.983,0,0,0-5.181,7.6h31.48A7.967,7.967,0,0,0,34.5,33.143Z" transform="translate(1.423 -7.749)" fill="none" stroke="#fff" stroke-width="1"/>
    <path id="Path_1620" data-name="Path 1620" d="M14.488,25.528s2.7-.09,3.778-1.052c-1.753-2.658-.8-5.758-1.165-8.653s-2-4.615-5.282-4.615h-.045c-3.167,0-4.875,1.719-5.237,4.615s.645,6.334-1.154,8.653c1.075.973,3.789.939,3.789.939h0a5.729,5.729,0,0,1-.113,1.9,2.856,2.856,0,0,1-1.357.622,26.245,26.245,0,0,0-2.93.814A4.763,4.763,0,0,0,2.215,32.96H11.3c.249-.9,1.957-2.522,3.62-3.371A7.6,7.6,0,0,1,17.712,29s.43-.679-.984-.939a9.642,9.642,0,0,1-2.172-.758C14.341,27.055,14.488,25.528,14.488,25.528Z" transform="translate(-2.215 -5.643)" fill="none" stroke="#fff" stroke-width="1"/>
    <path id="Path_1621" data-name="Path 1621" d="M27.586,25.528s-2.7-.09-3.778-1.052c1.753-2.658.8-5.758,1.165-8.653s2-4.615,5.282-4.615H30.3c3.167,0,4.875,1.719,5.237,4.615s-.645,6.334,1.154,8.653c-1.075.973-3.789.939-3.789.939h0a5.729,5.729,0,0,0,.113,1.9,2.856,2.856,0,0,0,1.357.622,26.245,26.245,0,0,1,2.93.814,4.762,4.762,0,0,1,2.556,4.208H30.776c-.249-.9-1.957-2.522-3.62-3.371A7.6,7.6,0,0,0,24.362,29s-.43-.679.984-.939a9.642,9.642,0,0,0,2.172-.758C27.733,27.055,27.586,25.528,27.586,25.528Z" transform="translate(10.93 -5.643)" fill="none" stroke="#fff" stroke-width="1"/>
  </g>
</svg>
