<svg xmlns="http://www.w3.org/2000/svg" width="38.558" height="44.817" viewBox="0 0 38.558 44.817">
  <path id="Icon_ionic-ios-git-network" data-name="Icon ionic-ios-git-network" d="M35.153,2.25a6.917,6.917,0,0,0-5.194,11.473,6.835,6.835,0,0,0,3.736,2.2v4.215L23.279,25.557,12.872,20.139V15.923a6.91,6.91,0,1,0-6.661-2.2,6.835,6.835,0,0,0,3.736,2.2v5.614a.684.684,0,0,0,.381.616L21.822,28.1v4.294a6.907,6.907,0,1,0,6.651,2.2,6.835,6.835,0,0,0-3.736-2.2V28.1l11.492-5.947a.684.684,0,0,0,.381-.616V15.923A6.915,6.915,0,0,0,35.153,2.25ZM7.415,9.165a3.991,3.991,0,1,1,3.991,3.99A3.995,3.995,0,0,1,7.415,9.165ZM27.269,39.152a3.991,3.991,0,1,1-3.991-3.99A3.995,3.995,0,0,1,27.269,39.152Zm7.883-25.987a3.99,3.99,0,1,1,3.991-3.99A3.995,3.995,0,0,1,35.153,13.165Z" transform="translate(-4 -1.75)" fill="none" stroke="#fff" stroke-width="1"/>
</svg>
