<svg xmlns="http://www.w3.org/2000/svg" width="14.098" height="14.098" viewBox="0 0 14.098 14.098">
  <path id="Instagram" d="M9.9,14.1H4.2A4.2,4.2,0,0,1,0,9.9V4.2A4.2,4.2,0,0,1,4.2,0H9.9a4.2,4.2,0,0,1,4.2,4.2V9.9A4.2,4.2,0,0,1,9.9,14.1ZM4.2,1.418A2.785,2.785,0,0,0,1.418,4.2V9.9A2.785,2.785,0,0,0,4.2,12.68H9.9A2.784,2.784,0,0,0,12.68,9.9V4.2A2.785,2.785,0,0,0,9.9,1.418Zm2.849,9.277A3.646,3.646,0,1,1,10.7,7.049,3.65,3.65,0,0,1,7.049,10.695Zm0-5.874A2.228,2.228,0,1,0,9.277,7.049,2.23,2.23,0,0,0,7.049,4.821ZM10.7,4.3a.874.874,0,1,1,.874-.874A.875.875,0,0,1,10.7,4.3Z" fill="#fff"/>
</svg>
