<svg xmlns="http://www.w3.org/2000/svg" width="181.737" height="37.4" viewBox="0 0 181.737 37.4">
  <path id="shopify-plus-vector-logo" d="M162.028,274.384a7.241,7.241,0,0,0-5.577,2.334l.273-1.364a.638.638,0,0,0-.636-.788,1,1,0,0,0-.94.788l-4,20.761a.638.638,0,0,0,.636.788,1,1,0,0,0,.94-.788l1.485-7.728c.546,1,1.818,2.334,4.667,2.334a7.911,7.911,0,0,0,5.546-2.031,10.973,10.973,0,0,0,3.061-6.183c.515-2.7.3-4.758-.667-6.152-.94-1.3-2.546-1.97-4.789-1.97ZM159.149,289.3c-3.394,0-4.728-2.334-3.879-6.759.849-4.455,3-6.728,6.365-6.728,3.7,0,5.061,2.212,4.182,6.728-.879,4.637-3,6.759-6.668,6.759Zm37.4-7.607c-2-.758-3.91-1.455-3.546-3.334.182-.94.94-2.516,4.031-2.516a4.28,4.28,0,0,1,3.758,1.667.573.573,0,0,0,.455.212.973.973,0,0,0,.879-.727.755.755,0,0,0-.091-.515v-.03a5.406,5.406,0,0,0-4.728-2.061c-3.152,0-5.425,1.515-5.88,3.97-.576,2.94,2.031,3.91,4.334,4.789,1.97.758,3.849,1.455,3.516,3.243-.485,2.546-3.152,2.91-4.7,2.91-2.122,0-3.425-.576-4.395-1.94h0a.545.545,0,0,0-.455-.212.973.973,0,0,0-.879.727.755.755,0,0,0,.091.515c.636,1.182,2.546,2.394,5.364,2.394,3.576,0,6.031-1.637,6.546-4.364.546-2.94-2.031-3.91-4.3-4.728Zm-4.789-11.426h-1.667l.333-1.667a.638.638,0,0,0-.636-.788,1.03,1.03,0,0,0-.94.788l-.333,1.667H186.85a1.03,1.03,0,0,0-.94.788.638.638,0,0,0,.636.788h1.667l-.333,1.667a.638.638,0,0,0,.636.788,1.03,1.03,0,0,0,.94-.788l.333-1.667h1.667a1.03,1.03,0,0,0,.94-.788.651.651,0,0,0-.485-.788C191.882,270.292,191.821,270.262,191.76,270.262ZM58.83,286.386a8.225,8.225,0,0,0,3.667.97c1.273,0,1.94-.7,1.94-1.515s-.485-1.364-1.849-2.152c-1.7-.97-2.97-2.334-2.97-4.122,0-3.152,2.7-5.395,6.637-5.395a8,8,0,0,1,3.788.758l-1.03,3.182a6.789,6.789,0,0,0-2.788-.606c-1.273,0-2.091.576-2.091,1.485,0,.727.576,1.243,1.728,1.849,1.758,1,3.213,2.364,3.213,4.3,0,3.576-2.91,5.607-6.94,5.577a8.636,8.636,0,0,1-4.425-1.121C57.739,289.6,58.83,286.386,58.83,286.386ZM69.984,290.6l4.364-22.791h4.486l-1.728,8.82.061-.061a6.148,6.148,0,0,1,4.758-2.425c2.334,0,3.667,1.515,3.667,4.031a16.491,16.491,0,0,1-.333,3.031L83.5,290.568H79.015l1.7-9.092a11.5,11.5,0,0,0,.182-2.031c0-.97-.394-1.7-1.394-1.7-1.424,0-2.97,1.909-3.546,4.88l-1.485,7.941-4.486.03Zm31.854-10.183c0,5.577-3.576,10.3-8.88,10.3-4.031,0-6.183-2.788-6.183-6.274,0-5.425,3.576-10.3,8.971-10.3,4.213,0,6.092,3.061,6.092,6.274Zm-10.456,3.94c0,1.637.636,2.94,2.182,2.94,2.364,0,3.7-4.243,3.7-7,0-1.334-.515-2.7-2.122-2.7C92.714,277.566,91.381,281.779,91.381,284.355Zm9.4,12.578,3.122-16.427c.364-1.849.727-4.243.909-5.94h3.97l-.273,2.546h.061a6.129,6.129,0,0,1,4.758-2.819c3.273,0,4.607,2.637,4.607,5.637,0,5.455-3.455,10.85-8.729,10.85a4.527,4.527,0,0,1-2.637-.606h-.091l-1.243,6.759Zm6.395-10.244a2.726,2.726,0,0,0,1.849.636c2.516,0,4.243-4.122,4.243-7.031,0-1.212-.424-2.485-1.788-2.485-1.576,0-3.031,1.849-3.546,4.667Zm10.911,3.91,3.031-16.033h4.516L122.568,290.6Zm5.819-17.7a2.227,2.227,0,0,1-2.122-2.425,2.66,2.66,0,0,1,2.576-2.7,2.23,2.23,0,0,1,2.243,2.364,2.64,2.64,0,0,1-2.637,2.728C123.962,272.9,123.9,272.9,123.9,272.9Zm2.576,17.7,2.364-12.669H126.75l.636-3.364h2.091l.121-.818a8.459,8.459,0,0,1,2.606-5.092,6.739,6.739,0,0,1,4.395-1.515,5.97,5.97,0,0,1,2.425.394l-.879,3.516a4.534,4.534,0,0,0-1.424-.242c-1.485,0-2.394,1.424-2.667,2.97l-.152.818h3.122l-.606,3.364h-3.091l-2.364,12.669-4.486-.03Zm16.154-16.033.727,7.183c.152,1.273.273,2.516.394,3.789h.061c.364-.849.7-2.091,1.334-3.819l2.728-7.153h4.7L147.087,286.3c-1.94,4.031-3.849,6.971-5.88,8.88a10.243,10.243,0,0,1-4.395,2.425l-1.243-3.819a10.5,10.5,0,0,0,2.546-1.273,8.275,8.275,0,0,0,2.455-2.7.91.91,0,0,0,.091-.7l-2.7-14.578C137.9,274.566,142.631,274.566,142.631,274.566Zm45.462,1.515a1.03,1.03,0,0,0-.94.788l-1.515,7.88c-.818,4-3.273,4.546-5.607,4.546-4.152,0-4.273-2.364-3.819-4.7L178,275.354a.638.638,0,0,0-.636-.788,1.03,1.03,0,0,0-.94.788l-1.788,9.244a5.722,5.722,0,0,0,.394,4.243c.788,1.243,2.364,1.879,4.728,1.879a7.5,7.5,0,0,0,5.455-1.879,7.973,7.973,0,0,0,2.031-4.243l1.485-7.759a.625.625,0,0,0-.636-.758Zm-14.336-8.244a1,1,0,0,0-.94.788l-4.061,21.125a.638.638,0,0,0,.636.788,1.03,1.03,0,0,0,.94-.788l4.061-21.125A.638.638,0,0,0,173.758,267.838ZM42.373,264.5l-1.091.333a6.859,6.859,0,0,0-.515-1.3,3.7,3.7,0,0,0-3.273-2.273h0a.838.838,0,0,0-.273.03c-.03-.061-.091-.091-.121-.152a3,3,0,0,0-2.273-.94c-1.788.061-3.546,1.334-4.97,3.607a14.315,14.315,0,0,0-2,5.183L24.37,270.08c-1.03.333-1.061.364-1.182,1.334-.091.727-2.788,21.549-2.788,21.549l22.337,3.849V264.473a1.146,1.146,0,0,0-.364.03Zm-5.152,1.606-3.758,1.182a8.945,8.945,0,0,1,1.909-3.7,3.767,3.767,0,0,1,1.273-.94A8.724,8.724,0,0,1,37.221,266.11Zm-2.425-4.7a1.854,1.854,0,0,1,1.061.273,5.165,5.165,0,0,0-1.364,1.061,10.31,10.31,0,0,0-2.334,4.91l-3.122.97c.636-2.849,3-7.122,5.758-7.213Zm-3.455,16.245c.121,1.909,5.122,2.3,5.395,6.759.212,3.516-1.849,5.91-4.849,6.092a7.21,7.21,0,0,1-5.577-1.879l.758-3.243s2,1.515,3.576,1.394a1.387,1.387,0,0,0,1.364-1.515c-.152-2.485-4.213-2.334-4.486-6.395-.212-3.425,2.031-6.91,7-7.213a6.075,6.075,0,0,1,2.879.364l-1.121,4.243a6.5,6.5,0,0,0-2.758-.485C31.341,275.93,31.311,277.324,31.341,277.657ZM38.4,265.746a9.327,9.327,0,0,0-.546-3.243c1.334.242,2,1.788,2.3,2.7C40.13,265.2,38.4,265.746,38.4,265.746Zm4.97,31,9.274-2.3s-4-26.974-4-27.156a.388.388,0,0,0-.333-.3c-.121,0-2.728-.061-2.728-.061s-1.576-1.546-2.182-2.122v31.944Z" transform="translate(-20.4 -260.2)" opacity="0.7"/>
</svg>
