<svg xmlns="http://www.w3.org/2000/svg" width="46.814" height="9.634" viewBox="0 0 46.814 9.634">
  <path id="shopify-plus-vector-logo" d="M56.883,263.854a1.865,1.865,0,0,0-1.437.6l.07-.351a.164.164,0,0,0-.164-.2.258.258,0,0,0-.242.2l-1.031,5.348a.164.164,0,0,0,.164.2.258.258,0,0,0,.242-.2l.383-1.991a1.252,1.252,0,0,0,1.2.6,2.038,2.038,0,0,0,1.429-.523,2.827,2.827,0,0,0,.789-1.593,2.076,2.076,0,0,0-.172-1.585,1.423,1.423,0,0,0-1.234-.507Zm-.742,3.841c-.874,0-1.218-.6-1-1.741s.773-1.733,1.639-1.733c.952,0,1.3.57,1.077,1.733-.226,1.195-.773,1.741-1.718,1.741Zm9.634-1.96c-.515-.2-1.007-.375-.913-.859.047-.242.242-.648,1.038-.648a1.1,1.1,0,0,1,.968.429.148.148,0,0,0,.117.055.251.251,0,0,0,.226-.187.194.194,0,0,0-.023-.133v-.008a1.644,1.644,0,0,0-2.732.492c-.148.757.523,1.007,1.116,1.234.507.2.992.375.906.835-.125.656-.812.749-1.21.749a1.233,1.233,0,0,1-1.132-.5h0a.141.141,0,0,0-.117-.055.251.251,0,0,0-.226.187.2.2,0,0,0,.023.133,1.551,1.551,0,0,0,1.382.617,1.522,1.522,0,0,0,1.686-1.124c.141-.757-.523-1.007-1.109-1.218Zm-1.234-2.943h-.429l.086-.429a.164.164,0,0,0-.164-.2.265.265,0,0,0-.242.2l-.086.429h-.429a.265.265,0,0,0-.242.2.164.164,0,0,0,.164.2h.429l-.086.429a.164.164,0,0,0,.164.2.265.265,0,0,0,.242-.2l.086-.429h.429a.265.265,0,0,0,.242-.2.168.168,0,0,0-.125-.2C64.573,262.8,64.557,262.792,64.541,262.792ZM30.3,266.945a2.119,2.119,0,0,0,.945.25c.328,0,.5-.18.5-.39s-.125-.351-.476-.554a1.282,1.282,0,0,1-.765-1.062c0-.812.695-1.39,1.71-1.39a2.061,2.061,0,0,1,.976.2l-.265.82a1.749,1.749,0,0,0-.718-.156c-.328,0-.539.148-.539.383,0,.187.148.32.445.476a1.35,1.35,0,0,1,.828,1.109c0,.921-.749,1.444-1.788,1.436a2.225,2.225,0,0,1-1.14-.289C30.018,267.773,30.3,266.945,30.3,266.945Zm2.873,1.085L34.3,262.16h1.155l-.445,2.272.016-.016a1.584,1.584,0,0,1,1.226-.625.91.91,0,0,1,.945,1.038,4.247,4.247,0,0,1-.086.781l-.453,2.412H35.5l.437-2.342a2.961,2.961,0,0,0,.047-.523c0-.25-.1-.437-.359-.437-.367,0-.765.492-.913,1.257l-.383,2.046-1.155.008Zm8.205-2.623a2.442,2.442,0,0,1-2.287,2.654,1.509,1.509,0,0,1-1.593-1.616,2.468,2.468,0,0,1,2.311-2.654,1.5,1.5,0,0,1,1.569,1.616Zm-2.693,1.015c0,.422.164.757.562.757.609,0,.952-1.093.952-1.8,0-.343-.133-.695-.547-.695C39.028,264.673,38.684,265.759,38.684,266.422Zm2.42,3.24.8-4.232c.094-.476.187-1.093.234-1.53h1.023l-.07.656h.016a1.579,1.579,0,0,1,1.226-.726c.843,0,1.187.679,1.187,1.452,0,1.405-.89,2.795-2.248,2.795a1.166,1.166,0,0,1-.679-.156h-.023l-.32,1.741Zm1.647-2.639a.7.7,0,0,0,.476.164c.648,0,1.093-1.062,1.093-1.811,0-.312-.109-.64-.461-.64-.406,0-.781.476-.913,1.2Zm2.811,1.007.781-4.13h1.163l-.789,4.13Zm1.5-4.559a.574.574,0,0,1-.546-.625.685.685,0,0,1,.664-.695.574.574,0,0,1,.578.609.68.68,0,0,1-.679.7C47.077,263.471,47.061,263.471,47.061,263.471Zm.664,4.559.609-3.263H47.8l.164-.867H48.5l.031-.211a2.179,2.179,0,0,1,.671-1.312,1.736,1.736,0,0,1,1.132-.39,1.538,1.538,0,0,1,.625.1l-.226.906a1.168,1.168,0,0,0-.367-.062c-.383,0-.617.367-.687.765l-.039.211h.8l-.156.867h-.8l-.609,3.263-1.155-.008Zm4.161-4.13.187,1.85c.039.328.07.648.1.976h.016c.094-.219.18-.539.344-.984l.7-1.842h1.21l-1.413,3.021a7.757,7.757,0,0,1-1.515,2.287,2.639,2.639,0,0,1-1.132.625l-.32-.984a2.7,2.7,0,0,0,.656-.328,2.132,2.132,0,0,0,.632-.695.234.234,0,0,0,.023-.18l-.695-3.755C50.668,263.9,51.886,263.9,51.886,263.9Zm11.711.39a.265.265,0,0,0-.242.2l-.39,2.03a1.283,1.283,0,0,1-1.444,1.171c-1.07,0-1.1-.609-.984-1.21L61,264.1a.164.164,0,0,0-.164-.2.265.265,0,0,0-.242.2l-.461,2.381a1.474,1.474,0,0,0,.1,1.093,1.339,1.339,0,0,0,1.218.484,1.931,1.931,0,0,0,1.405-.484,2.054,2.054,0,0,0,.523-1.093l.383-2a.161.161,0,0,0-.164-.2ZM59.9,262.167a.258.258,0,0,0-.242.2l-1.046,5.442a.164.164,0,0,0,.164.2.265.265,0,0,0,.242-.2l1.046-5.442A.164.164,0,0,0,59.9,262.167Zm-33.844-.859-.281.086a1.767,1.767,0,0,0-.133-.336.952.952,0,0,0-.843-.586h0a.216.216,0,0,0-.07.008c-.008-.016-.023-.023-.031-.039a.772.772,0,0,0-.586-.242,1.691,1.691,0,0,0-1.28.929,3.688,3.688,0,0,0-.515,1.335l-.9.281c-.265.086-.273.094-.3.344-.023.187-.718,5.551-.718,5.551l5.754.992V261.3a.294.294,0,0,0-.094.008Zm-1.327.414-.968.3a2.3,2.3,0,0,1,.492-.952.97.97,0,0,1,.328-.242A2.247,2.247,0,0,1,24.733,261.722Zm-.625-1.21a.478.478,0,0,1,.273.07,1.331,1.331,0,0,0-.351.273,2.656,2.656,0,0,0-.6,1.265l-.8.25c.164-.734.773-1.835,1.483-1.858Zm-.89,4.185c.031.492,1.319.593,1.39,1.741a1.353,1.353,0,0,1-1.249,1.569,1.857,1.857,0,0,1-1.437-.484l.2-.835a1.741,1.741,0,0,0,.921.359.357.357,0,0,0,.351-.39c-.039-.64-1.085-.6-1.155-1.647a1.747,1.747,0,0,1,1.8-1.858,1.565,1.565,0,0,1,.742.094l-.289,1.093a1.673,1.673,0,0,0-.71-.125C23.218,264.252,23.211,264.611,23.218,264.7Zm1.819-3.068a2.4,2.4,0,0,0-.141-.835c.344.062.515.461.593.695C25.482,261.488,25.037,261.629,25.037,261.629Zm1.28,7.987,2.389-.593s-1.031-6.948-1.031-7a.1.1,0,0,0-.086-.078l-.7-.016s-.406-.4-.562-.546v8.229Z" transform="translate(-20.4 -260.2)" opacity="0.7"/>
</svg>
