<svg xmlns="http://www.w3.org/2000/svg" width="18.878" height="15.09" viewBox="0 0 18.878 15.09">
  <path id="sliders-h-Light_1_" d="M691.462,353a2.936,2.936,0,0,0-2.93,2.358H686a.472.472,0,1,0,0,.943h2.535a2.966,2.966,0,1,0,2.93-3.3Zm0,4.716a1.889,1.889,0,1,1,1.987-1.886A1.941,1.941,0,0,1,691.462,357.716Zm5.962-1.886a.485.485,0,0,1,.5-.472h5.962a.472.472,0,1,1,0,.943H697.92A.485.485,0,0,1,697.423,355.829Zm6.458,8.96h-2.535a2.833,2.833,0,1,0,0,.943h2.535a.472.472,0,1,0,0-.943Zm-5.465,2.358a1.889,1.889,0,1,1,1.987-1.886A1.941,1.941,0,0,1,698.417,367.147Zm-5.962-1.886a.485.485,0,0,1-.5.471H686a.472.472,0,1,1,0-.943h5.962A.484.484,0,0,1,692.455,365.26Z" transform="translate(-685.5 -353)" fill="#fff"/>
</svg>
