<svg xmlns="http://www.w3.org/2000/svg" width="17.018" height="16.309" viewBox="0 0 17.018 16.309">
  <path id="Star" d="M40.459,41.034a.685.685,0,0,0-.66.5l-1.673,5.169h-5.5a.7.7,0,0,0-.681.713.694.694,0,0,0,.294.567c.11.074,4.439,3.237,4.439,3.237s-1.663,5.106-1.695,5.187a.771.771,0,0,0-.042.241.688.688,0,0,0,1.081.568l4.432-3.227s4.332,3.156,4.432,3.227a.688.688,0,0,0,1.081-.568.758.758,0,0,0-.043-.241c-.032-.081-1.694-5.187-1.694-5.187s4.329-3.162,4.439-3.237a.707.707,0,0,0-.379-1.28H42.8l-1.681-5.169A.684.684,0,0,0,40.459,41.034Z" transform="translate(-31.95 -41.034)" fill="#3f447c" fill-rule="evenodd"/>
</svg>
