<svg xmlns="http://www.w3.org/2000/svg" width="20.093" height="19.256" viewBox="0 0 20.093 19.256">
  <path id="Star" d="M42,41.034a.809.809,0,0,0-.779.594l-1.976,6.1H32.754a.829.829,0,0,0-.8.841.819.819,0,0,0,.347.67c.13.088,5.241,3.822,5.241,3.822s-1.963,6.028-2,6.124a.911.911,0,0,0-.05.285.812.812,0,0,0,1.277.67L42,56.334s5.115,3.726,5.233,3.81a.812.812,0,0,0,1.277-.67.9.9,0,0,0-.05-.285c-.038-.1-2-6.124-2-6.124s5.111-3.734,5.241-3.822a.835.835,0,0,0-.448-1.511H44.759l-1.984-6.1A.808.808,0,0,0,42,41.034Z" transform="translate(-31.95 -41.034)" fill="#fff" fill-rule="evenodd"/>
</svg>
