<svg xmlns="http://www.w3.org/2000/svg" width="8.913" height="8.542" viewBox="0 0 8.913 8.542">
  <path id="Star" d="M36.406,41.034a.359.359,0,0,0-.345.264L35.185,44H32.306a.368.368,0,0,0-.356.373.363.363,0,0,0,.154.3c.058.039,2.325,1.7,2.325,1.7s-.871,2.674-.888,2.717a.4.4,0,0,0-.022.126.36.36,0,0,0,.566.3l2.321-1.69,2.321,1.69a.36.36,0,0,0,.566-.3.4.4,0,0,0-.022-.126c-.017-.043-.887-2.717-.887-2.717s2.267-1.656,2.325-1.7a.37.37,0,0,0-.2-.67H37.632l-.88-2.707A.358.358,0,0,0,36.406,41.034Z" transform="translate(-31.95 -41.034)" fill="#fff" fill-rule="evenodd"/>
</svg>
